<?xml version="1.0" standalone="no"?>
<!DOCTYPE svg PUBLIC "-//W3C//DTD SVG 20010904//EN"
 "http://www.w3.org/TR/2001/REC-SVG-20010904/DTD/svg10.dtd">
<svg version="1.0" xmlns="http://www.w3.org/2000/svg"
 width="1024.000000pt" height="1024.000000pt" viewBox="0 0 1024.000000 1024.000000"
 preserveAspectRatio="xMidYMid meet">
<metadata>
Created by potrace 1.14, written by Peter Selinger 2001-2017
</metadata>
<g transform="translate(0.000000,1024.000000) scale(0.100000,-0.100000)"
fill="#000000" stroke="none">
<path d="M0 5120 l0 -5120 5120 0 5120 0 0 5120 0 5120 -5120 0 -5120 0 0
-5120z m5541 4290 c281 -38 491 -93 729 -190 358 -147 662 -347 947 -623 302
-292 506 -576 671 -933 126 -272 184 -459 234 -759 29 -177 32 -591 5 -760
-19 -116 -30 -167 -43 -200 -5 -13 10 -4 40 23 76 70 122 85 251 84 63 0 115
4 122 10 8 7 13 37 13 84 0 64 3 75 22 88 30 21 50 20 82 -5 25 -20 26 -24 26
-120 0 -55 -5 -110 -11 -122 -20 -39 -52 -67 -76 -67 -13 0 -23 -4 -23 -9 0
-12 -37 -19 -135 -25 l-80 -5 85 14 85 14 -80 -6 c-44 -3 -86 -10 -94 -16 -9
-8 -15 -8 -18 -2 -4 14 -69 11 -88 -5 -12 -10 -13 -16 -4 -27 10 -11 8 -12 -6
-7 -12 5 -16 4 -12 -3 4 -6 -2 -21 -13 -33 -12 -14 -18 -32 -16 -46 3 -13 0
-24 -5 -24 -6 0 -8 -4 -5 -9 8 -12 -20 -22 -41 -14 -16 6 -17 5 -3 -11 14 -17
13 -18 -18 -12 -31 7 -32 7 -32 -26 0 -23 -3 -29 -9 -19 -7 11 -10 10 -14 -5
-5 -21 -11 25 -7 61 3 37 -16 2 -49 -90 -42 -113 -144 -314 -216 -425 -30 -47
-55 -88 -55 -92 0 -4 24 2 53 13 28 12 97 31 152 44 55 13 107 26 116 30 10 3
20 2 24 -4 8 -14 30 -14 76 -1 l36 10 5 93 c6 106 26 155 83 205 74 65 106 75
264 81 116 5 145 9 149 21 3 8 22 32 42 53 30 30 45 37 75 37 55 0 100 -32
121 -85 27 -71 -2 -132 -74 -153 -32 -10 -49 -9 -93 4 -69 21 -285 15 -339 -8
-48 -21 -93 -71 -129 -143 -51 -99 -57 -95 137 -95 278 -1 333 -13 385 -82 22
-30 18 -54 -18 -92 -31 -34 -44 -33 -96 9 l-44 35 -192 0 c-185 0 -196 -1
-285 -29 -51 -16 -122 -37 -158 -47 -77 -20 -220 -83 -220 -96 0 -5 15 -28 34
-51 181 -224 289 -529 303 -859 10 -239 -29 -451 -123 -681 -70 -172 -212
-416 -238 -409 -19 6 -56 44 -50 54 3 5 0 7 -8 6 -7 -2 -12 3 -10 10 1 8 -2
11 -6 8 -5 -3 -18 4 -28 17 -10 12 -12 16 -4 9 19 -17 35 -15 21 2 -9 11 -9
15 1 19 7 3 3 6 -9 6 -12 1 -25 6 -28 11 -4 6 -11 7 -17 4 -6 -4 -5 -10 3 -15
10 -6 10 -9 2 -9 -19 0 -22 14 -8 33 11 15 13 16 19 2 8 -22 34 -19 41 5 7 21
35 28 35 8 0 -6 2 -9 5 -6 3 3 1 16 -4 29 -5 13 -10 17 -11 9 0 -10 -6 -6 -16
10 -14 24 -15 24 -11 3 3 -13 1 -26 -4 -29 -5 -3 -9 2 -9 11 0 9 -4 13 -10 10
-13 -8 -13 -8 4 51 54 187 44 441 -25 654 -46 142 -135 297 -230 404 -166 187
-377 320 -593 376 -39 10 -70 22 -69 27 2 8 -19 13 -64 13 -24 0 -31 24 -12
36 8 4 7 9 -2 15 -14 8 -14 8 50 62 12 9 25 17 30 17 15 0 35 30 25 39 -12 11
-261 47 -270 39 -3 -4 5 -55 20 -115 56 -235 59 -265 57 -498 -1 -138 -7 -252
-16 -305 l-14 -85 27 -24 c135 -119 253 -226 282 -256 33 -35 30 -34 -40 15
-41 29 -91 65 -110 79 -59 44 -571 451 -645 514 -38 32 -91 76 -117 98 -26 21
-52 39 -58 39 -23 0 27 -64 90 -113 36 -28 97 -78 136 -111 131 -113 859 -683
1219 -956 559 -424 1072 -766 1430 -955 119 -63 135 -76 128 -105 -10 -37
-319 -158 -523 -203 -198 -44 -460 -69 -702 -67 -14 0 -16 -7 -11 -36 7 -43
-7 -56 -52 -48 -39 6 -57 31 -49 66 4 20 2 28 -8 29 -7 0 -50 4 -94 7 -75 7
-82 6 -79 -10 4 -20 1 -21 -35 -11 l-25 7 25 8 c20 6 18 7 -13 5 -26 -2 -36 1
-33 9 3 7 -10 14 -35 18 -36 6 -39 9 -39 37 0 28 2 30 28 25 319 -61 728 -61
1047 0 205 39 515 145 515 176 0 17 -70 2 -190 -41 -64 -22 -129 -43 -145 -45
-17 -3 -55 -12 -85 -20 -65 -19 -60 -18 -60 -8 0 4 39 18 88 31 48 13 125 38
172 56 47 18 96 36 109 40 21 7 22 8 7 23 -22 23 -73 19 -176 -11 -170 -50
-275 -61 -530 -60 -317 2 -339 3 -345 12 -2 5 -25 7 -50 5 -33 -3 -44 -1 -39
7 4 8 -3 9 -25 4 -19 -4 -31 -3 -31 4 0 19 18 20 141 5 248 -31 550 -19 774
31 70 15 36 19 -49 5 -46 -7 -215 -17 -391 -22 -45 -2 -317 23 -328 29 -5 3
-28 7 -50 8 -23 2 -60 6 -82 10 -22 3 -48 6 -57 6 -10 0 -18 3 -18 7 0 4 -15
8 -32 8 -18 1 -46 5 -63 8 -16 4 -38 7 -47 7 -10 0 -18 5 -18 10 0 6 -5 7 -10
4 -6 -4 -17 -1 -25 5 -8 6 -19 9 -24 6 -5 -4 -12 -2 -16 3 -3 6 -12 8 -20 4
-9 -3 -22 0 -30 7 -8 6 -19 9 -24 6 -5 -4 -13 -1 -16 5 -4 5 -13 8 -21 5 -8
-3 -14 -1 -14 4 0 5 -8 9 -17 8 -37 -3 -54 2 -47 13 5 9 -1 10 -19 5 -22 -5
-25 -3 -20 11 5 15 3 16 -8 6 -16 -16 -33 -17 -23 -1 5 8 0 9 -14 6 -12 -4
-22 -2 -22 4 0 5 -6 8 -12 5 -7 -2 -18 3 -25 12 -10 12 -12 13 -13 2 0 -11 -3
-11 -15 -1 -8 6 -19 9 -25 5 -5 -3 -10 -2 -10 4 0 6 -7 7 -17 4 -11 -5 -14 -3
-8 6 6 10 2 11 -16 6 -21 -7 -22 -6 -10 9 15 18 8 21 -18 7 -13 -7 -18 -6 -18
3 0 7 7 13 15 12 8 -1 17 6 20 14 4 12 2 13 -9 4 -8 -7 -26 -10 -42 -8 -15 1
-25 -1 -22 -7 8 -12 5 -11 -33 2 -17 6 -31 14 -31 17 3 19 -2 25 -10 14 -6
-10 -14 -11 -27 -4 -11 5 -36 17 -57 26 -25 11 -36 20 -31 29 6 9 4 9 -8 -1
-14 -11 -17 -10 -23 8 -3 11 -11 18 -16 14 -14 -8 -48 6 -45 19 1 7 1 9 -1 5
-8 -14 -38 -8 -96 20 -32 15 -54 32 -50 37 4 4 3 5 -4 1 -13 -7 -63 13 -63 26
0 5 -6 8 -12 7 -17 -3 -68 22 -68 33 0 5 -6 6 -12 3 -7 -4 -5 0 5 8 17 14 17
15 -7 13 -13 0 -22 -5 -19 -10 4 -5 -12 1 -35 14 -23 13 -39 27 -37 31 3 4 -3
5 -13 3 -9 -3 -26 3 -37 13 -12 10 -27 19 -35 21 -8 2 -19 7 -24 12 -12 12 3
32 20 26 8 -3 11 0 7 10 -7 19 -20 18 -32 -3 -9 -16 -12 -16 -43 -1 -33 15
-126 75 -278 178 -41 28 -77 53 -79 56 -2 2 24 4 58 4 47 0 60 -3 55 -12 -5
-9 -3 -9 9 1 20 16 332 9 602 -15 283 -25 379 -31 393 -27 6 3 63 -26 125 -65
401 -250 861 -454 1197 -531 144 -33 126 -24 -155 74 -226 80 -406 155 -605
255 -234 116 -505 281 -497 303 2 6 15 13 30 15 23 3 26 7 21 30 -5 23 -1 29
25 39 29 11 43 33 21 33 -16 0 -12 27 5 34 28 10 15 34 -32 62 -27 16 -118 67
-204 114 -86 47 -164 92 -175 100 -11 8 -52 53 -93 100 -40 47 -89 96 -109
110 -32 22 -37 31 -40 68 -3 52 -23 85 -67 112 -18 11 -40 35 -48 53 -113 240
-220 562 -296 887 -32 140 -71 288 -85 329 -23 66 -24 75 -11 94 33 48 7 152
-52 205 -14 13 -24 25 -22 26 12 11 119 36 154 36 44 0 61 -12 85 -60 11 -22
9 -21 -20 8 -34 34 -48 36 -130 24 l-45 -7 22 -20 c26 -25 62 -101 63 -132 0
-13 2 -23 5 -23 17 0 196 98 275 151 168 112 216 176 190 254 -10 29 -9 43 5
80 22 56 14 103 -27 168 -31 49 -98 97 -135 97 -14 0 -23 8 -27 24 -7 27 -163
146 -281 215 -78 44 -267 128 -366 161 -83 28 -443 121 -493 127 l-39 5 5 68
c4 51 13 81 34 119 31 55 271 288 323 315 17 9 64 23 105 31 82 15 113 29 198
86 31 22 59 39 62 39 3 0 22 -33 42 -72 81 -161 188 -294 293 -363 29 -20 42
-37 51 -71 15 -52 78 -127 129 -153 20 -11 59 -46 88 -78 28 -33 77 -77 110
-99 32 -21 83 -57 113 -79 150 -109 338 -220 411 -244 30 -10 40 -21 63 -71
21 -44 40 -68 77 -95 58 -41 83 -79 105 -155 20 -68 47 -100 72 -84 19 13 23
83 9 167 l-8 49 35 -39 c28 -31 37 -52 45 -104 6 -35 11 -81 11 -101 0 -40 31
-83 53 -75 7 2 14 23 17 48 l5 44 14 -57 c11 -45 18 -58 33 -58 23 0 24 37 3
106 -8 27 -15 51 -15 53 0 2 17 -14 38 -37 40 -43 62 -51 80 -29 14 17 -55
183 -106 257 -41 58 -133 130 -170 133 -12 1 -22 6 -22 12 0 19 -53 61 -100
78 -33 12 -49 25 -59 48 -8 18 -50 71 -95 119 -45 47 -102 115 -127 151 -113
156 -257 299 -300 299 -11 0 -26 15 -38 38 -28 55 -66 88 -117 104 -45 13 -47
15 -91 108 -24 52 -54 119 -65 149 -11 29 -48 94 -82 144 l-61 91 -1 80 c-1
137 -58 241 -184 335 -82 61 -121 127 -98 169 23 45 142 160 168 163 14 2 70
-4 125 -13 115 -20 188 -22 215 -8 39 21 55 109 55 305 -1 176 -1 182 -31 262
-63 168 -136 251 -284 322 -66 31 -86 36 -170 39 -259 10 -454 -130 -490 -353
-18 -113 17 -220 97 -291 l46 -41 -46 -28 c-31 -17 -67 -29 -105 -32 -56 -5
-58 -5 -115 41 -96 79 -133 91 -272 91 -103 -1 -131 -4 -195 -27 -64 -22 -98
-26 -235 -31 -100 -4 -195 -14 -255 -26 -58 -13 -134 -20 -197 -21 -73 0 -117
-5 -150 -18 -37 -13 -64 -16 -118 -11 -95 9 -210 -6 -303 -40 -42 -16 -157
-58 -256 -95 -98 -36 -209 -73 -247 -82 -62 -14 -74 -14 -130 0 -42 11 -83 32
-128 65 -36 26 -79 55 -96 64 -33 18 -186 87 -191 87 -9 0 -3 -27 10 -52 14
-27 14 -28 -9 -28 -13 0 -40 9 -60 21 -68 41 -91 -8 -28 -60 45 -37 42 -38
-24 -7 -53 26 -63 40 -63 84 0 51 33 69 89 51 26 -9 36 -9 39 0 9 26 36 43 63
37 38 -7 217 -89 278 -126 28 -18 55 -30 60 -28 5 1 36 40 68 85 436 611 1092
1045 1806 1197 89 19 203 39 252 45 222 27 514 28 716 1z m309 -529 c55 -17
150 -74 150 -90 0 -4 -16 -13 -37 -19 -34 -10 -39 -9 -69 17 -18 16 -30 32
-26 36 3 3 -2 3 -12 -1 -15 -6 -17 -4 -11 6 5 8 4 11 -2 7 -10 -6 -126 26
-119 34 2 2 -8 5 -22 5 -37 2 -72 8 -72 11 0 2 10 8 23 13 29 13 124 3 197
-19z m-306 -32 c-9 -10 -21 -19 -26 -19 -6 0 -42 -16 -81 -35 l-71 -35 34 36
c36 37 76 62 120 74 35 10 44 1 24 -21z m182 -25 c50 -14 144 -68 144 -83 0
-4 6 -15 13 -25 13 -18 16 -17 75 9 38 17 70 25 84 21 69 -18 148 -244 148
-426 0 -90 -17 -226 -32 -253 -10 -20 -43 -19 -115 4 -31 10 -33 13 -31 52 l1
42 4 -38 c4 -32 7 -37 21 -32 9 4 23 8 30 8 19 1 14 21 -8 35 -11 6 -17 18
-14 25 3 8 -1 27 -7 43 l-12 29 -7 -35 -7 -35 -3 45 c-2 48 -27 157 -29 128
-1 -22 -8 -23 -27 -4 -8 8 -11 21 -8 29 3 8 -6 68 -21 134 -34 154 -34 153
-51 146 -7 -3 -14 -1 -14 4 0 19 -69 85 -81 77 -8 -5 -9 -3 -5 5 5 8 3 12 -5
10 -24 -3 -43 1 -36 8 4 3 -1 12 -11 20 -15 13 -15 13 4 4 12 -6 24 -7 28 -4
3 3 6 1 6 -5 0 -7 5 -12 11 -12 49 0 -86 68 -137 69 -12 1 -33 -8 -48 -20 -34
-27 -34 -5 0 26 28 26 41 26 140 -1z m-96 -34 c11 -8 9 -9 -12 -8 -16 1 -28 6
-28 10 0 11 22 10 40 -2z m-61 -67 c50 -21 26 -37 -33 -22 -97 24 -165 -2
-217 -84 -30 -49 -38 -24 -10 31 45 88 154 119 260 75z m-156 -113 c-9 -16
-21 -30 -26 -30 -9 0 -1 17 21 43 23 26 25 21 5 -13z m328 5 c91 -48 91 -189
0 -216 -55 -16 -107 10 -138 71 -31 59 -29 97 4 132 31 33 85 38 134 13z
m-237 -32 c14 -20 16 -29 7 -46 -10 -21 -10 -21 -5 3 7 32 -26 65 -56 57 -17
-4 -19 -3 -10 8 15 18 41 9 64 -22z m383 15 c-3 -8 -6 -5 -6 6 -1 11 2 17 5
13 3 -3 4 -12 1 -19z m-425 -94 c18 2 25 -1 21 -9 -9 -25 -38 -22 -58 4 -10
14 -12 21 -4 14 8 -6 26 -10 41 -9z m6 -101 c-10 -2 -28 -2 -40 0 -13 2 -5 4
17 4 22 1 32 -1 23 -4z m-3485 -34 c54 -28 67 -50 67 -111 0 -32 -4 -58 -9
-58 -5 0 -12 -9 -16 -19 -3 -11 -20 -26 -38 -34 -59 -28 -116 -7 -148 55 -22
43 -24 105 -5 130 31 42 104 60 149 37z m3897 -64 c59 -30 89 -73 95 -133 l4
-37 -13 36 c-23 61 -46 100 -56 94 -6 -4 -10 -1 -10 6 0 7 -3 10 -6 6 -4 -3
-13 0 -21 8 -8 8 -32 18 -54 21 -21 4 -36 11 -33 16 7 11 58 1 94 -17z m-299
-106 c-27 -52 -63 -139 -80 -194 -39 -133 -54 -173 -82 -219 -31 -52 -35 -31
-11 52 11 37 27 96 36 132 9 36 25 90 37 120 11 30 23 65 26 78 3 12 14 27 25
33 17 9 18 8 9 -10 -6 -11 -11 -26 -11 -33 1 -7 11 5 23 27 28 52 71 114 75
110 2 -1 -19 -45 -47 -96z m-605 76 c57 -17 115 -70 139 -127 17 -42 20 -133
5 -143 -6 -4 -10 13 -10 43 0 32 -8 64 -23 93 -25 47 -79 91 -102 83 -7 -3
-16 -1 -20 5 -3 6 -30 11 -60 11 -39 0 -67 -8 -109 -29 -31 -17 -56 -27 -56
-24 0 4 -6 0 -12 -8 -22 -27 -89 -42 -132 -31 -21 6 -44 8 -52 5 -27 -10 -14
16 24 44 44 35 101 62 162 79 62 17 187 17 246 -1z m-486 -44 c0 -28 -50 -38
-209 -44 -138 -5 -166 -9 -184 -24 -11 -10 -17 -12 -13 -5 5 9 3 13 -5 11 -24
-3 -53 1 -47 6 32 32 458 84 458 56z m-526 -57 c31 -30 15 -40 -56 -35 -15 1
-46 -3 -70 -10 -24 -6 -45 -10 -47 -9 -2 1 -8 -4 -12 -12 -7 -10 -9 -10 -9 3
0 19 36 54 70 68 39 15 107 13 124 -5z m369 -11 c-7 -2 -19 -2 -25 0 -7 3 -2
5 12 5 14 0 19 -2 13 -5z m75 -5 c-3 -7 -15 -14 -29 -15 -17 -1 -19 0 -5 4 15
4 16 7 5 14 -10 6 -8 9 9 9 15 0 22 -5 20 -12z m-710 -4 c12 -4 22 -12 22 -20
0 -11 -16 -12 -77 -7 -72 5 -149 -6 -215 -32 -13 -5 -18 -2 -18 9 0 29 90 53
200 55 36 0 75 -2 88 -5z m520 -1 c-15 -2 -42 -2 -60 0 -18 2 -6 4 27 4 33 0
48 -2 33 -4z m622 -13 c-17 -17 -20 -31 -18 -70 2 -26 5 -46 7 -44 3 2 19 -9
35 -25 17 -17 49 -35 71 -40 22 -5 31 -9 20 -10 -78 -4 -165 61 -165 123 0 36
35 86 60 86 5 0 1 -9 -10 -20z m149 -6 c27 -34 27 -75 0 -105 l-20 -24 12 24
11 24 -30 -22 c-23 -16 -35 -19 -54 -12 -23 10 -23 10 4 10 16 1 31 9 38 20
14 26 13 36 -2 24 -22 -17 -70 -9 -84 13 -13 18 -12 24 7 47 29 38 89 38 118
1z m267 -18 c24 -42 48 -142 42 -172 -2 -12 -18 11 -46 69 -23 48 -42 91 -42
96 0 5 -7 14 -15 21 -23 19 -18 32 12 28 20 -2 34 -14 49 -42z m344 -50 c-16
-38 -30 -74 -30 -81 0 -8 -4 -16 -9 -20 -6 -3 -6 6 -1 24 11 40 62 152 67 148
2 -2 -10 -34 -27 -71z m-3052 -10 c20 -13 44 -31 51 -40 13 -15 11 -16 -15 -6
-48 18 -173 92 -178 106 -6 14 84 -23 142 -60z m3282 60 c0 -2 -8 -10 -17 -17
-16 -13 -17 -12 -4 4 13 16 21 21 21 13z m-1750 -21 c0 -23 -25 -67 -52 -92
-35 -32 -98 -33 -98 -1 0 7 4 7 14 -1 10 -9 19 -3 41 30 32 45 25 60 -23 51
-15 -3 -24 -1 -19 3 7 9 70 21 115 24 14 1 22 -5 22 -14z m-1764 -34 c30 -27
88 -51 122 -51 19 0 14 -18 -8 -30 -14 -8 -26 -6 -48 7 -43 27 -127 103 -112
103 7 0 27 -13 46 -29z m1044 10 c0 -4 -75 -31 -167 -61 -93 -29 -182 -61
-200 -70 -17 -10 -34 -16 -37 -13 -14 15 -4 30 27 41 17 5 103 35 190 66 143
49 187 58 187 37z m-2089 -11 c269 -47 500 -126 784 -269 l191 -96 40 22 c40
22 104 41 218 63 44 9 60 17 64 32 4 15 7 17 13 6 12 -18 11 -56 -1 -63 -6 -4
-51 -15 -99 -25 -49 -10 -105 -26 -125 -35 -41 -20 -96 -78 -96 -102 0 -16 43
-15 170 8 30 5 105 13 167 18 116 9 152 21 263 89 l45 27 380 2 c421 2 384 -3
573 76 l83 35 82 -19 c72 -17 309 -59 329 -59 4 0 -17 -46 -47 -102 -57 -108
-85 -195 -85 -263 0 -29 -9 -56 -30 -89 -73 -114 -100 -182 -101 -253 -1 -38
-4 -58 -6 -46 -2 12 -10 27 -18 33 -38 31 -166 -259 -220 -500 -27 -118 -30
-295 -7 -425 11 -60 18 -111 17 -113 -2 -2 -52 27 -111 64 -519 320 -763 449
-1024 537 -119 40 -212 60 -110 24 258 -93 387 -152 579 -269 64 -39 152 -92
196 -118 75 -44 230 -139 423 -258 109 -67 109 -66 138 -128 14 -30 43 -68 64
-86 46 -40 179 -107 225 -115 25 -4 37 -13 45 -33 24 -58 133 -132 344 -235
145 -71 286 -158 286 -177 0 -15 -30 -48 -45 -48 -6 0 -22 12 -36 26 -39 41
-148 117 -234 163 l-80 43 44 -39 c25 -21 54 -45 65 -53 12 -8 32 -25 46 -37
14 -13 55 -45 92 -71 37 -26 67 -49 66 -52 0 -3 -25 -27 -55 -54 l-54 -50 -45
12 c-72 19 -116 15 -183 -20 -33 -17 -61 -37 -61 -45 0 -34 -3 -31 -531 433
-151 133 -288 255 -306 272 -17 16 -35 27 -39 23 -4 -3 -4 5 -1 18 4 18 3 21
-6 12 -17 -17 -27 -13 -27 9 0 11 5 20 11 20 6 0 9 6 6 14 -3 8 -1 17 6 19 8
3 4 11 -10 22 -13 9 -23 21 -23 26 0 13 21 7 22 -6 0 -6 17 -18 37 -27 33 -15
71 -52 168 -163 25 -29 36 -35 54 -30 13 5 19 3 15 -3 -4 -6 2 -8 15 -5 13 4
17 8 9 13 -8 5 -7 9 4 13 20 8 21 43 1 51 -8 3 -14 11 -13 17 3 13 -10 23
-207 161 -71 50 -148 106 -170 125 -22 18 -78 65 -125 104 -115 96 -225 162
-426 257 -191 90 -338 147 -404 156 -211 30 -320 33 -400 10 -134 -39 -145
-41 -151 -32 -3 5 -12 8 -20 6 -8 -2 -13 3 -11 10 1 6 -4 12 -11 12 -19 0 -57
72 -57 109 0 20 10 42 29 63 l29 33 119 0 c136 0 286 -10 302 -19 6 -4 11 -4
11 -1 0 11 -71 36 -82 29 -7 -4 -8 -3 -4 4 4 7 1 12 -8 12 -8 0 -16 -3 -19 -7
-2 -5 -2 -3 -1 4 4 15 -21 23 -151 48 l-30 6 30 -15 c25 -13 26 -15 5 -9 -14
4 -33 7 -42 7 -21 0 -24 12 -5 20 6 3 -44 4 -112 1 -85 -3 -127 -8 -132 -17
-4 -7 -11 -9 -15 -6 -3 4 -16 -2 -27 -13 -14 -12 -23 -16 -25 -9 -6 18 58 78
97 91 80 27 381 -26 547 -96 53 -22 446 -136 452 -130 10 10 -67 45 -176 80
-64 20 -121 40 -127 45 -5 4 -31 13 -57 20 -45 12 -49 16 -63 59 -29 91 -53
159 -68 187 -19 35 -102 128 -87 97 20 -43 9 -35 -39 28 -26 36 -84 97 -127
138 -81 76 -194 167 -194 156 0 -3 -9 -1 -20 5 -11 6 -18 15 -15 20 8 12 -46
52 -62 45 -8 -2 -12 -1 -8 4 3 5 -30 28 -72 51 -43 23 -88 51 -100 62 -17 16
-25 18 -40 9 -16 -9 -14 -11 12 -12 20 -1 23 -3 10 -6 -12 -2 -32 1 -45 6 -19
7 -21 10 -7 10 17 1 16 4 -4 33 -36 50 -83 88 -91 75 -5 -7 -8 -2 -9 13 -1 18
-3 20 -6 7 -3 -12 -10 -16 -20 -13 -12 5 -14 1 -11 -18 3 -16 1 -23 -7 -19 -7
2 -12 12 -11 21 0 9 -6 17 -14 18 -31 2 -35 5 -20 14 13 8 13 10 -1 10 -9 0
-22 14 -29 31 -7 16 -28 42 -46 56 -35 26 -114 44 -114 25 0 -6 46 -48 103
-94 56 -45 113 -94 125 -108 100 -108 109 -170 19 -123 -43 22 -170 119 -241
184 -58 53 -122 142 -137 189 -6 22 -7 23 -8 4 -1 -12 -8 -27 -16 -34 -21 -18
-89 3 -110 33 -29 42 -14 110 28 127 41 16 249 11 368 -10z m2399 -2 l35 -22
-80 -7 c-44 -4 -109 -15 -145 -23 -36 -9 -78 -16 -95 -16 -20 0 -26 -3 -17 -9
9 -6 5 -8 -15 -8 -49 0 -82 -7 -80 -17 3 -17 -230 -68 -266 -58 -22 6 55 33
303 107 63 18 140 43 170 54 76 27 146 27 190 -1z m962 -4 c21 -15 37 -28 36
-29 -2 -1 -39 2 -83 7 -50 6 -118 6 -185 0 -58 -5 -142 -7 -188 -5 -56 4 -87
1 -97 -7 -10 -8 -15 -9 -15 -2 0 28 46 42 135 43 49 1 117 5 150 9 33 4 94 8
134 9 66 1 79 -2 113 -25z m1109 -21 c-5 -10 -24 -31 -41 -47 -26 -24 -96
-115 -207 -269 -25 -35 -28 -37 -31 -17 -3 19 54 127 94 176 15 19 16 19 10
-1 -6 -20 -6 -20 9 -1 8 11 15 26 15 35 0 8 3 11 7 8 10 -10 53 34 53 54 0 9
7 22 15 29 13 11 14 10 9 -6 -4 -12 7 -5 32 19 43 42 49 45 35 20z m-3467 -9
c31 -12 17 -33 -26 -38 -123 -15 -161 -16 -174 -5 -26 22 -15 38 29 42 76 7
155 7 171 1z m1576 -14 c0 -5 -7 -7 -15 -4 -8 4 -12 10 -9 15 6 11 24 2 24
-11z m850 -20 c14 -7 55 -35 92 -62 46 -34 77 -49 101 -50 28 -1 33 -4 29 -20
-2 -10 -8 -20 -12 -23 -7 -5 -111 46 -137 67 -15 12 -36 1 -27 -14 4 -7 2 -8
-5 -4 -9 6 -9 11 -1 21 9 11 6 17 -14 30 -14 9 -30 14 -36 10 -5 -3 -10 -1
-10 5 0 7 -6 10 -14 7 -7 -3 -18 -1 -24 5 -6 6 -111 12 -266 16 -183 3 -256 8
-256 16 0 18 547 15 580 -4z m705 10 c-27 -12 -43 -12 -25 0 8 5 22 9 30 9 10
0 8 -3 -5 -9z m-286 -57 c1 -15 -47 -73 -60 -73 -6 0 -8 4 -4 9 6 11 -33 51
-49 51 -5 0 5 16 24 35 l33 34 28 -22 c15 -12 28 -27 28 -34z m-2589 37 c13
-8 13 -10 -2 -10 -9 0 -24 -7 -32 -16 -15 -14 -16 -13 -16 10 0 28 21 34 50
16z m1130 -13 c0 -15 -79 -35 -210 -52 -30 -4 -63 -13 -73 -20 -10 -7 -28 -10
-39 -7 -12 3 -19 1 -15 -4 3 -5 -11 -8 -34 -6 -22 2 -39 0 -39 -6 0 -5 -11 -9
-25 -8 -14 0 -25 3 -25 6 0 3 66 21 148 39 81 18 176 41 212 51 81 22 100 23
100 7z m-1051 -22 c18 -16 28 -32 24 -40 -8 -21 -31 -18 -45 5 -7 11 -18 20
-25 20 -14 0 -18 22 -6 33 11 11 20 8 52 -18z m2617 -60 c-7 -28 -115 -118
-133 -111 -7 3 -13 2 -13 -2 0 -4 -27 -24 -60 -45 -42 -28 -78 -63 -124 -126
-36 -48 -74 -96 -86 -106 -20 -19 -21 -19 -14 1 13 34 117 185 136 195 10 5
29 21 42 34 14 14 30 25 36 25 6 0 32 14 57 32 25 17 43 25 39 17 -4 -8 0 -5
9 6 9 11 19 20 23 20 17 0 52 33 61 58 15 38 6 33 -25 -13 -15 -22 -29 -38
-32 -36 -2 3 4 17 14 33 11 15 28 45 39 67 l19 38 9 -32 c5 -18 6 -43 3 -55z
m-2316 45 c6 -11 13 -44 16 -73 3 -36 2 -46 -5 -32 -8 19 -9 19 -14 -5 -2 -14
-3 -3 -1 23 2 28 -1 45 -6 42 -6 -3 -7 0 -4 8 3 8 -2 20 -11 27 -19 16 -19 30
0 30 8 0 19 -9 25 -20z m2480 0 c-20 -13 -33 -13 -25 0 3 6 14 10 23 10 15 0
15 -2 2 -10z m-2573 -37 c46 -57 16 -145 -61 -182 -23 -12 -52 -21 -64 -21
-31 0 -18 24 21 38 18 7 44 26 56 43 13 18 17 28 10 23 -34 -21 -84 -33 -94
-22 -7 8 -6 9 3 4 6 -4 12 -2 12 3 0 6 9 11 20 11 34 0 70 23 77 48 7 30 -5
52 -40 72 -34 19 -55 7 -80 -45 l-19 -39 24 -18 c12 -9 19 -18 13 -17 -5 0
-18 6 -29 14 -16 12 -17 18 -7 47 6 17 21 43 34 56 30 33 92 26 124 -15z m993
13 c0 -7 -152 -57 -163 -53 -6 2 24 15 68 30 82 27 95 30 95 23z m-1040 -30
c19 -24 8 -58 -24 -69 -21 -7 -30 -6 -37 4 -30 47 26 106 61 65z m1080 5 c0
-11 -147 -78 -192 -86 -21 -4 -38 -3 -42 4 -4 6 9 13 31 17 21 4 44 11 51 17
6 5 12 6 12 2 0 -4 7 -2 15 5 8 7 15 9 15 6 0 -4 7 0 16 9 9 9 23 14 31 11 9
-4 11 -2 7 6 -5 7 0 9 14 6 12 -4 22 -2 22 3 0 5 5 9 10 9 6 0 10 -4 10 -9z
m-663 -17 c-3 -3 -12 -4 -19 -1 -8 3 -5 6 6 6 11 1 17 -2 13 -5z m-82 -24 c3
-5 -1 -10 -9 -10 -9 0 -16 5 -16 10 0 6 4 10 9 10 6 0 13 -4 16 -10z m-85 -20
c0 -13 -7 -20 -20 -20 -22 0 -23 1 -14 24 9 23 34 20 34 -4z m2254 -29 c-6 -6
-24 19 -24 34 1 6 7 1 15 -9 8 -11 12 -22 9 -25z m-1887 23 c-3 -3 -12 -4 -19
-1 -8 3 -5 6 6 6 11 1 17 -2 13 -5z m-737 -49 c0 -29 -6 -40 -42 -65 -46 -34
-71 -39 -66 -13 2 10 18 22 38 27 45 13 60 28 60 60 0 14 2 26 5 26 3 0 5 -16
5 -35z m740 25 c-74 -11 -232 -10 -175 0 22 4 83 7 135 7 85 0 89 -1 40 -7z
m2263 -117 c5 -60 -3 -82 -17 -47 -11 30 -25 147 -19 158 11 17 30 -44 36
-111z m-366 45 c80 -58 84 -63 79 -91 -10 -50 -100 -222 -114 -219 -8 1 -11
-2 -8 -7 10 -15 -73 -129 -133 -182 -72 -64 -130 -93 -162 -80 l-24 10 25 0
c21 1 73 41 53 41 -4 0 -2 5 4 11 8 8 1 29 -23 76 -37 71 -44 125 -18 161 8
12 18 20 22 18 4 -2 16 3 27 11 19 15 19 15 -5 8 -22 -7 -24 -6 -11 9 8 9 20
15 28 12 7 -3 13 -1 13 4 0 5 21 10 48 12 l47 3 -37 9 c-30 6 -47 4 -79 -12
l-41 -21 23 26 c19 20 20 25 7 20 -24 -8 -23 6 1 27 10 10 21 26 24 37 8 31
-23 23 -67 -18 l-39 -38 32 47 c17 26 42 55 54 63 38 27 182 123 185 124 2 1
42 -27 89 -61z m-901 -31 c-13 -24 -29 -52 -35 -63 -21 -37 -59 -139 -66 -177
-4 -21 -11 -35 -16 -30 -21 22 44 202 102 284 31 45 43 35 15 -14z m-1888 -6
c3 -18 -1 -21 -20 -19 -13 2 -28 7 -34 11 -7 4 -15 0 -18 -9 -4 -10 -14 -14
-25 -11 -12 3 -22 -1 -25 -9 -6 -15 -46 -20 -46 -6 0 10 26 24 95 51 59 23 69
22 73 -8z m1925 4 c-3 -9 -8 -14 -10 -11 -3 3 -2 9 2 15 9 16 15 13 8 -4z
m1374 -73 c48 -49 96 -134 91 -160 -2 -12 -11 -3 -28 26 -13 23 -28 42 -32 42
-5 0 -7 4 -3 9 3 5 -4 12 -15 16 -11 4 -18 11 -15 16 4 5 1 9 -5 9 -6 0 -15
11 -22 25 -6 13 -15 22 -20 19 -5 -3 -7 0 -6 8 2 7 -3 12 -10 10 -8 -1 -11 2
-8 7 4 5 2 12 -4 16 -5 3 -10 11 -10 16 0 17 40 -11 87 -59z m-4255 -5 c14 -1
24 -5 22 -9 -2 -4 4 -9 14 -12 24 -8 97 -84 116 -120 29 -57 -22 -75 -86 -31
-36 25 -99 126 -113 183 -6 25 -5 25 7 9 8 -11 26 -20 40 -20z m2988 -27 c0
-5 -7 -10 -16 -10 -8 0 -12 5 -9 10 3 6 10 10 16 10 5 0 9 -4 9 -10z m480 -5
c-7 -8 -17 -15 -22 -15 -6 0 -5 7 2 15 7 8 17 15 22 15 6 0 5 -7 -2 -15z m433
-12 c-1 -12 -19 -57 -40 -102 -36 -75 -39 -79 -59 -68 -21 12 -21 13 24 105
32 67 50 92 61 90 10 -2 15 -12 14 -25z m169 3 c19 -99 -54 -289 -146 -381
-80 -80 -228 -142 -250 -106 -3 5 -29 1 -56 -10 -54 -20 -90 -24 -90 -10 0 11
27 24 59 27 13 2 31 11 40 20 15 15 14 15 -16 0 -18 -9 -33 -14 -33 -12 0 11
55 33 69 28 9 -3 11 0 6 8 -6 9 -4 11 5 5 8 -5 18 -1 27 10 7 11 13 16 13 12
0 -6 26 12 55 40 7 7 15 10 17 8 3 -3 5 1 5 8 0 6 23 46 50 87 64 95 86 140
113 223 l22 67 53 0 c47 0 53 -2 57 -24z m-1182 -66 c13 -24 3 -87 -15 -98 -6
-4 -31 -43 -55 -87 -23 -44 -53 -99 -66 -123 l-22 -42 -12 36 c-10 30 -9 43 6
82 21 55 135 252 146 252 4 0 12 -9 18 -20z m-2620 -10 c13 -11 18 -20 12 -20
-10 0 -42 27 -42 36 0 8 7 4 30 -16z m-485 -37 c61 -20 162 -59 225 -88 168
-76 187 -81 212 -58 17 15 19 26 14 68 -3 28 -8 60 -12 73 -18 64 103 -13 246
-158 109 -109 172 -194 234 -316 31 -61 69 -155 63 -154 -1 0 -45 12 -97 26
-52 14 -155 38 -229 54 -128 28 -136 31 -165 67 -55 65 -140 144 -193 179 -55
36 -69 41 -57 23 4 -8 0 -7 -15 1 -12 6 -19 15 -16 21 4 5 2 8 -3 7 -6 -2 -42
21 -81 50 -39 28 -73 52 -76 52 -3 0 -19 10 -34 21 -16 12 -34 18 -40 15 -6
-4 -30 2 -53 12 -78 35 -92 35 -105 2 -10 -26 -16 -30 -48 -30 -50 0 -85 36
-85 88 0 98 103 113 315 45z m3235 -12 c0 -13 -82 -121 -92 -121 -13 0 10 39
51 87 39 46 41 47 41 34z m1240 0 c20 -2 79 -63 89 -91 5 -17 7 -30 3 -30 -13
1 -62 49 -62 62 0 11 -2 11 -8 0 -7 -10 -14 -8 -33 6 -13 11 -34 22 -46 26
-12 4 -20 12 -17 19 4 10 33 13 74 8z m-481 -80 c18 -11 9 -35 -38 -99 -35
-47 -59 -62 -71 -42 -5 8 5 30 27 59 20 25 40 56 46 69 11 24 15 26 36 13z
m541 -81 c68 -47 89 -69 134 -144 52 -87 44 -100 -13 -20 -26 38 -75 91 -107
119 -32 27 -65 57 -72 65 -8 8 -11 9 -7 3 4 -9 1 -11 -9 -7 -9 3 -13 10 -10
15 3 5 -5 9 -18 9 -18 0 -20 2 -9 9 17 11 32 4 111 -49z m-4520 30 c0 -5 -2
-10 -4 -10 -3 0 -8 5 -11 10 -3 6 -1 10 4 10 6 0 11 -4 11 -10z m4445 -75 c49
-28 125 -108 185 -193 32 -46 49 -62 61 -59 14 4 28 -12 59 -63 23 -37 46 -85
52 -106 22 -78 36 -159 29 -170 -7 -14 -51 0 -51 16 0 14 17 13 24 -2 18 -39
-8 113 -28 159 -34 82 -70 123 -101 117 -18 -3 -25 0 -25 11 0 8 -4 15 -10 15
-5 0 -9 4 -7 8 8 28 -123 185 -202 242 -18 14 -43 33 -55 44 l-21 18 25 -7
c14 -4 43 -17 65 -30z m-1382 -7 c-5 -7 -18 -39 -28 -70 -12 -37 -22 -53 -27
-45 -5 8 -8 3 -8 -13 0 -14 -4 -32 -9 -40 -7 -10 -9 -3 -7 21 3 33 75 173 84
164 3 -3 1 -10 -5 -17z m295 -62 l32 -45 -56 -63 c-31 -35 -91 -114 -132 -175
-72 -108 -92 -130 -92 -99 0 15 112 185 170 259 22 27 37 54 33 60 -3 6 -1 7
5 3 7 -4 12 -2 12 3 0 18 -5 26 -12 24 -4 -2 -5 3 -2 11 7 19 -26 50 -39 37
-6 -6 -16 -11 -21 -11 -6 0 3 13 19 29 34 32 37 31 83 -33z m-3540 32 c30 -30
3 -82 -40 -76 -29 4 -47 50 -28 72 15 19 51 21 68 4z m4487 -18 c3 -6 -1 -7
-9 -4 -18 7 -21 14 -7 14 6 0 13 -4 16 -10z m-1448 -72 c-6 -78 -34 -161 -49
-151 -6 3 -7 -3 -3 -17 4 -14 3 -20 -3 -16 -5 3 -12 -2 -15 -12 -3 -9 -26 -86
-51 -171 -25 -85 -53 -163 -62 -173 -17 -18 -44 -25 -44 -10 0 22 64 251 79
286 10 23 24 59 31 81 7 22 24 60 37 84 12 24 23 57 23 73 0 42 26 98 46 98
15 0 16 -9 11 -72z m-2754 48 c9 -7 17 -21 17 -30 0 -25 -28 -31 -50 -11 -15
13 -17 22 -9 36 11 22 18 23 42 5z m4231 6 c3 -5 -1 -9 -9 -9 -8 0 -12 4 -9 9
3 4 7 8 9 8 2 0 6 -4 9 -8z m40 -44 c-5 -8 -1 -9 10 -5 11 5 15 3 10 -5 -5 -8
-2 -9 9 -5 18 7 33 -8 17 -18 -13 -8 -53 20 -56 40 -1 8 2 13 7 9 5 -3 6 -10
3 -16z m-1413 -75 c-11 -21 -20 -32 -21 -25 0 17 30 75 36 69 3 -3 -4 -22 -15
-44z m219 12 c0 -26 -14 -33 -25 -15 -9 14 1 40 15 40 5 0 10 -11 10 -25z
m1367 -89 c48 -65 52 -76 24 -76 -23 0 -45 25 -35 41 4 7 3 9 -3 6 -5 -3 -23
12 -39 33 -16 22 -35 40 -41 40 -18 0 -16 11 4 26 23 16 32 8 90 -70z m-4551
49 c31 -9 73 -35 114 -70 74 -63 101 -74 144 -55 34 14 89 16 125 2 l22 -8
-23 -29 c-16 -21 -17 -26 -4 -15 33 26 47 20 24 -11 -25 -33 -28 -34 -48 -16
-12 10 -12 9 0 -6 22 -29 -4 -39 -91 -34 -53 2 -89 10 -118 25 -23 13 -40 18
-36 12 3 -6 0 -7 -9 -4 -9 3 -16 11 -16 16 0 6 -7 7 -16 4 -8 -3 -13 -2 -10 3
9 13 -33 20 -89 15 -76 -7 -171 -42 -205 -75 -33 -34 -47 -87 -31 -117 6 -12
11 -37 11 -57 0 -109 -115 -164 -195 -94 -19 17 -35 27 -35 23 -1 -5 -8 4 -16
19 -21 38 -20 140 0 210 16 56 65 130 114 173 97 84 271 124 388 89z m3484 3
c0 4 6 0 13 -9 7 -9 17 -18 22 -20 31 -11 -65 -159 -104 -159 -9 0 -33 13 -54
29 -32 25 -35 30 -20 36 10 5 21 7 26 7 4 -1 4 10 1 25 -8 36 -9 35 1 57 11
26 64 46 92 35 13 -5 23 -5 23 -1z m180 -56 c0 -16 -64 -104 -103 -140 -20
-19 -25 -20 -42 -8 -23 17 -19 28 56 129 49 67 51 68 70 51 10 -9 19 -24 19
-32z m-555 17 c9 -14 -3 -59 -15 -59 -6 0 -10 16 -10 35 0 34 12 46 25 24z
m1305 -54 c13 -14 21 -25 18 -25 -2 0 -15 11 -28 25 -13 14 -21 25 -18 25 2 0
15 -11 28 -25z m-1558 -131 c-16 -49 -37 -122 -47 -161 -11 -43 -23 -73 -30
-73 -17 0 1 78 57 248 29 88 43 119 46 101 2 -15 -10 -66 -26 -115z m-227 -19
c-19 -60 -47 -167 -61 -239 -15 -72 -33 -140 -41 -151 -14 -19 -14 -19 -9 5 3
14 10 59 17 100 17 115 111 411 125 397 3 -2 -12 -53 -31 -112z m1849 84 c-3
-5 -10 -7 -15 -3 -5 3 -7 10 -3 15 3 5 10 7 15 3 5 -3 7 -10 3 -15z m13 -24
c0 -8 -4 -12 -9 -9 -5 3 -6 10 -3 15 9 13 12 11 12 -6z m227 -26 c31 -37 31
-40 6 -70 l-19 -24 -1 27 c0 18 -10 33 -29 47 -26 19 -31 20 -44 6 -20 -19
-37 -19 -37 -1 0 21 39 46 71 46 18 0 36 -10 53 -31z m-1419 -8 c-3 -6 -11
-11 -17 -11 -6 0 -6 6 2 15 14 17 26 13 15 -4z m-2716 -5 c-11 -10 -99 -16
-99 -7 0 5 21 11 48 13 46 3 59 2 51 -6z m2798 -29 c-10 -20 -17 -23 -25 -15
-19 19 -14 36 11 40 29 5 29 5 14 -25z m72 -26 c-6 -17 -17 -35 -25 -42 -23
-19 -18 27 6 51 27 27 31 25 19 -9z m1507 -25 c24 -24 34 -43 34 -66 l0 -32
-27 34 c-31 37 -64 64 -75 60 -5 -1 -8 7 -8 18 0 31 37 25 76 -14z m-1919 -33
c-3 -10 -5 -2 -5 17 0 19 2 27 5 18 2 -10 2 -26 0 -35z m291 21 c50 -35 15
-134 -48 -134 -58 0 -81 80 -35 125 28 29 51 31 83 9z m-361 -16 c-3 -8 -6 -5
-6 6 -1 11 2 17 5 13 3 -3 4 -12 1 -19z m50 0 c-3 -8 -6 -5 -6 6 -1 11 2 17 5
13 3 -3 4 -12 1 -19z m-3024 -39 c16 -26 1 -49 -32 -49 -36 0 -54 25 -39 53
11 22 56 20 71 -4z m3034 -26 c-3 -10 -5 -4 -5 12 0 17 2 24 5 18 2 -7 2 -21
0 -30z m20 5 c-3 -8 -6 -5 -6 6 -1 11 2 17 5 13 3 -3 4 -12 1 -19z m349 -83
c-1 -58 -5 -86 -13 -90 -14 -5 -17 9 -14 70 2 35 18 105 25 105 1 0 2 -38 2
-85z m-3171 30 c16 -15 25 -36 25 -55 0 -38 -39 -80 -73 -80 -13 0 -36 9 -51
21 -36 28 -35 72 3 110 36 35 64 37 96 4z m2772 -42 c-2 -16 -4 -5 -4 22 0 28
2 40 4 28 2 -13 2 -35 0 -50z m2154 5 c47 -46 176 -195 218 -253 8 -11 -55 48
-139 130 -85 83 -156 156 -158 163 -7 27 27 9 79 -40z m-2134 -10 c-3 -7 -5
-2 -5 12 0 14 2 19 5 13 2 -7 2 -19 0 -25z m1966 16 c38 -20 91 -64 268 -225
110 -100 171 -151 208 -176 2 -1 -4 -9 -13 -18 -15 -15 -18 -15 -45 4 -16 12
-32 21 -36 21 -13 0 -315 237 -315 247 0 3 15 -6 33 -21 74 -60 217 -166 223
-166 4 0 29 -16 55 -35 27 -19 49 -31 49 -25 0 11 -97 86 -153 118 -23 12 -74
54 -114 93 -44 43 -77 68 -84 63 -7 -4 -9 -3 -5 4 10 16 -107 102 -122 88 -3
-3 0 -6 7 -6 7 0 9 -4 6 -10 -3 -5 6 -12 20 -16 14 -3 23 -9 20 -12 -3 -3 5
-17 17 -30 l23 -25 -22 14 c-13 8 -23 17 -23 20 0 4 -16 14 -36 24 -20 9 -33
22 -31 29 3 7 1 19 -3 27 -8 11 -15 12 -41 2 -37 -14 -47 -10 -29 12 17 20
102 20 143 -1z m-3838 -43 c249 -61 602 -224 695 -321 14 -14 43 -39 64 -55
83 -61 200 -202 208 -250 4 -24 -27 -22 -56 3 -10 10 -21 17 -25 17 -3 0 -5 4
-3 8 1 5 -2 6 -7 2 -6 -3 -29 11 -51 32 -23 20 -51 38 -62 38 -12 1 -38 20
-59 42 -21 23 -41 38 -44 34 -4 -3 -13 3 -21 13 -10 14 -14 16 -14 5 0 -8 -3
-10 -8 -4 -4 6 -27 26 -52 45 -25 19 -56 45 -70 58 -72 68 -227 154 -340 190
-132 41 -172 47 -345 47 l-170 0 -79 -37 c-43 -21 -82 -38 -87 -38 -5 0 -9 15
-9 34 0 54 59 112 145 142 64 23 81 24 190 20 69 -3 154 -13 200 -25z m1613 0
c1 -37 28 -100 50 -118 27 -22 59 -33 192 -68 69 -18 166 -50 215 -70 112 -47
301 -160 408 -245 157 -123 426 -411 480 -512 26 -48 27 -53 11 -57 -10 -2
-24 5 -32 15 -95 134 -168 221 -281 334 -74 74 -135 139 -136 145 0 5 -7 10
-15 10 -9 0 -31 13 -50 29 -19 15 -29 25 -21 20 9 -5 12 -3 7 5 -4 6 -12 9
-17 5 -14 -8 -70 30 -102 71 -15 19 -33 35 -40 35 -7 -1 2 -12 18 -26 20 -17
23 -22 8 -15 -11 6 -31 23 -43 38 -12 16 -19 22 -15 16 11 -22 -12 -14 -28 10
-8 12 -57 43 -108 69 -87 44 -130 58 -314 108 -39 11 -87 26 -108 35 -21 9
-43 13 -49 9 -7 -5 -8 -2 -3 6 5 8 -1 19 -16 30 -19 15 -24 29 -27 84 -3 39 0
66 5 66 6 0 10 -13 11 -29z m-76 -55 c10 -78 40 -141 78 -164 17 -11 70 -27
118 -37 240 -47 415 -127 640 -292 l72 -53 -21 -29 c-29 -39 -66 -37 -95 6
-12 18 -25 29 -29 25 -3 -4 -6 -2 -5 3 5 23 -1 33 -25 39 -14 4 -25 13 -25 21
0 8 -9 15 -19 15 -10 0 -22 7 -25 16 -3 8 -11 12 -17 8 -8 -4 -7 -9 2 -15 7
-4 11 -11 7 -14 -8 -8 -48 26 -48 41 0 7 -13 19 -30 28 -27 13 -30 13 -31 -2
-1 -15 -2 -15 -6 1 -2 9 -11 17 -19 17 -8 0 -13 4 -10 9 3 5 -1 12 -10 15 -8
3 -12 2 -9 -4 8 -13 -1 -13 -26 1 -11 5 -17 14 -14 20 4 5 0 9 -9 9 -8 0 -16
4 -18 8 -1 4 -20 18 -40 31 -21 12 -38 26 -38 31 0 14 -32 21 -46 9 -10 -8
-21 -6 -46 9 -18 10 -67 25 -108 32 -91 15 -111 31 -141 113 -12 34 -26 66
-31 72 -4 5 -8 29 -8 53 0 64 23 49 32 -22z m612 51 c9 -7 20 -31 23 -53 5
-36 2 -43 -22 -62 -42 -33 -73 -29 -91 13 -18 44 -18 65 2 93 17 25 60 29 88
9z m-287 -29 c-3 -7 -5 -2 -5 12 0 14 2 19 5 13 2 -7 2 -19 0 -25z m34 -63 c2
-16 6 -39 11 -50 6 -13 0 -9 -16 9 -25 30 -42 71 -25 60 5 -3 9 14 10 38 l1
43 9 -35 c4 -19 9 -48 10 -65z m-424 33 c-3 -7 -5 -2 -5 12 0 14 2 19 5 13 2
-7 2 -19 0 -25z m4773 15 c59 -35 69 -118 19 -164 -45 -42 -96 -40 -143 5 -29
27 -36 41 -36 70 0 47 13 72 48 90 36 20 78 20 112 -1z m-3878 -13 c19 -11 79
-29 134 -40 293 -59 596 -179 764 -304 52 -38 54 -40 30 -46 -14 -4 -30 -3
-37 2 -7 6 -17 7 -22 3 -6 -3 -8 0 -5 9 6 16 -22 35 -64 42 -15 3 -34 12 -42
21 -8 9 -9 13 -2 9 6 -4 12 -5 12 -3 0 8 -106 58 -131 62 -41 5 -110 45 -102
58 4 7 1 7 -10 -2 -14 -11 -18 -11 -23 4 -5 12 -14 15 -33 10 -19 -4 -22 -3
-11 5 13 9 13 10 0 11 -8 0 -24 3 -35 5 -11 3 -32 5 -48 5 -15 0 -25 4 -22 9
3 4 -12 11 -32 15 -20 4 -46 13 -57 21 -25 18 -50 19 -40 2 4 -7 -1 -6 -12 3
-28 24 -55 21 -50 -5 3 -12 1 -10 -6 6 -9 22 -21 28 -72 38 -85 16 -97 20 -90
31 3 6 -6 8 -23 4 -15 -3 -22 -2 -14 1 10 5 11 8 1 14 -7 4 -9 13 -6 19 9 14
9 14 48 -9z m-3628 -11 c14 -11 26 -30 26 -42 -1 -23 -29 -81 -30 -61 0 12
-53 28 -82 25 -13 -2 -18 5 -18 21 0 27 16 50 45 66 27 15 28 15 59 -9z m5051
-20 c37 -33 48 -73 18 -67 -10 2 -17 11 -16 19 2 8 -14 26 -36 40 -38 23 -44
39 -16 39 8 0 30 -14 50 -31z m-1562 -37 c-18 -45 -43 -75 -43 -52 0 29 34 98
46 93 9 -3 9 -14 -3 -41z m-716 -4 c-3 -7 -5 -2 -5 12 0 14 2 19 5 13 2 -7 2
-19 0 -25z m-50 -15 c-3 -10 -5 -4 -5 12 0 17 2 24 5 18 2 -7 2 -21 0 -30z
m-1315 -26 c54 -16 96 -32 94 -36 -2 -3 7 -7 20 -7 21 -2 81 -39 141 -88 99
-80 160 -137 224 -208 79 -87 102 -117 79 -103 -36 22 50 -104 219 -321 31
-40 62 -80 69 -90 11 -17 11 -17 2 3 -7 15 -7 24 0 28 6 4 9 3 8 -2 -4 -13 23
-83 32 -83 10 0 131 -179 134 -198 1 -8 9 -18 17 -23 12 -7 7 -13 -11 -11 -3
0 7 -25 22 -56 30 -62 41 -142 21 -149 -7 -3 -13 0 -13 6 0 10 -60 111 -67
111 -2 0 4 -15 13 -32 l16 -33 -20 20 c-22 23 -41 72 -23 61 17 -11 13 6 -9
34 -11 14 -20 32 -20 40 0 13 -1 13 -10 0 -7 -11 -10 -11 -10 -2 0 7 -4 11 -9
8 -4 -3 -14 13 -21 34 -7 22 -20 46 -28 52 -15 13 -36 58 -33 71 1 5 -3 6 -9
2 -5 -3 -10 1 -10 9 0 9 -5 16 -11 16 -5 0 -7 5 -3 12 4 7 3 8 -4 4 -8 -5 -1
-29 25 -79 73 -145 113 -285 113 -393 0 -85 -32 -124 -84 -104 -43 16 -55 48
-66 176 -12 138 -35 233 -78 322 -51 104 -181 325 -212 361 -17 18 -30 38 -30
43 0 14 -191 196 -279 267 -133 106 -327 201 -454 221 -75 12 -236 10 -272 -4
-16 -6 -17 -6 -5 3 13 9 13 11 -2 11 -12 0 -15 5 -11 17 5 12 3 14 -8 8 -8 -5
-5 1 5 13 11 12 26 20 35 17 23 -7 45 10 35 26 -6 11 -5 11 9 0 10 -8 21 -11
24 -7 4 4 1 11 -7 17 -14 8 31 4 66 -6 7 -2 10 4 7 15 -4 16 3 19 54 25 32 4
63 8 68 10 6 2 46 3 90 3 60 -1 105 -8 177 -31z m1400 -24 c32 -68 32 -67 18
-58 -10 6 -50 87 -50 101 0 14 13 -2 32 -43z m-2882 27 c0 -5 -2 -10 -4 -10
-3 0 -8 5 -11 10 -3 6 -1 10 4 10 6 0 11 -4 11 -10z m57 -6 c-3 -3 -12 -4 -19
-1 -8 3 -5 6 6 6 11 1 17 -2 13 -5z m2676 -71 c3 -38 8 -84 11 -103 4 -26 1
-20 -14 20 -19 56 -27 150 -11 150 4 0 11 -30 14 -67z m74 35 c-3 -7 -5 -2 -5
12 0 14 2 19 5 13 2 -7 2 -19 0 -25z m2544 -48 c57 -45 132 -100 166 -123 61
-40 74 -59 53 -72 -13 -8 -102 53 -95 65 7 11 -26 43 -93 87 -54 36 -152 122
-141 123 4 0 53 -36 110 -80z m-4842 50 c16 0 21 -3 14 -8 -8 -5 -2 -12 19
-21 20 -9 26 -16 18 -21 -7 -5 -10 -17 -7 -29 3 -12 2 -19 -2 -16 -5 2 -21 0
-37 -5 -16 -5 -56 -17 -89 -26 -119 -34 -219 -98 -259 -166 -13 -24 -36 -86
-51 -138 -52 -190 -129 -258 -329 -289 l-78 -13 -28 27 c-16 15 -32 43 -36 63
-4 21 -8 42 -10 49 -2 12 10 15 106 28 124 16 177 55 205 150 43 149 83 213
181 295 92 77 248 136 328 124 16 -2 40 -4 55 -4z m471 0 c0 -5 -5 -10 -11
-10 -5 0 -7 5 -4 10 3 6 8 10 11 10 2 0 4 -4 4 -10z m2127 4 c-3 -3 -12 -4
-19 -1 -8 3 -5 6 6 6 11 1 17 -2 13 -5z m-3521 -43 c59 -27 87 -72 92 -146 3
-50 0 -66 -20 -94 -32 -48 -82 -75 -137 -75 -166 0 -220 234 -72 311 53 28 83
29 137 4z m328 6 c-7 -20 -70 -47 -109 -47 -51 0 -43 13 23 36 69 26 93 29 86
11z m3761 -6 c28 -10 124 -35 215 -56 91 -20 204 -48 251 -61 190 -52 371
-140 377 -182 4 -28 1 -28 -67 4 -31 14 -74 34 -97 45 -51 23 -161 59 -183 59
-14 0 -14 -2 -1 -11 13 -9 12 -10 -3 -5 -10 3 -43 13 -75 22 -31 9 -59 20 -62
25 -3 4 -28 13 -55 20 -28 7 -65 18 -83 26 -19 8 -43 12 -54 10 -26 -7 -50 2
-41 16 4 6 0 8 -9 5 -8 -4 -15 -1 -15 7 0 10 6 11 26 3 38 -15 78 -21 66 -10
-16 15 -122 41 -152 37 -36 -4 -113 29 -113 49 0 21 14 20 75 -3z m85 -65 c0
-3 -4 -8 -10 -11 -5 -3 -10 -1 -10 4 0 6 5 11 10 11 6 0 10 -2 10 -4z m1960
-78 c0 -15 -18 0 -41 35 l-22 32 31 -29 c18 -17 32 -34 32 -38z m-2566 4 c47
-27 96 -106 96 -154 0 -109 -100 -189 -198 -159 -45 13 -98 57 -94 78 2 8 -1
12 -6 9 -6 -3 -9 2 -7 11 2 10 4 24 4 32 1 22 9 9 15 -24 3 -17 19 -42 36 -57
57 -52 185 -29 210 38 15 38 12 101 -5 135 -20 37 -87 87 -130 95 -43 8 -105
-24 -134 -68 -25 -39 -29 -19 -4 23 26 43 88 71 142 65 24 -4 58 -14 75 -24z
m-76 -19 c-10 -2 -28 -2 -40 0 -13 2 -5 4 17 4 22 1 32 -1 23 -4z m-23 -20
c-11 -3 -27 -11 -35 -18 -32 -26 -44 -27 -21 -2 15 17 34 27 50 26 21 -1 22
-2 6 -6z m2635 -18 c0 -8 -4 -17 -10 -20 -6 -4 -10 5 -10 20 0 15 4 24 10 20
6 -3 10 -12 10 -20z m-1820 -10 c243 -49 355 -79 530 -142 221 -80 250 -97
250 -149 0 -30 -2 -33 -22 -25 -13 5 -23 14 -23 22 0 30 -23 47 -90 64 -38 10
-75 23 -80 29 -19 20 -54 36 -79 36 -14 0 -31 6 -38 13 -7 8 -19 12 -26 9 -6
-2 -12 1 -12 6 0 12 -35 26 -131 52 -132 35 -213 50 -219 39 -4 -6 -17 -4 -34
5 -19 9 -23 16 -14 20 7 3 1 4 -13 1 -16 -3 -45 5 -75 20 -28 14 -38 23 -24
20 14 -2 59 -11 100 -20z m-3056 -7 c-5 -8 0 -7 11 2 17 14 18 13 13 -7 -5
-17 -2 -20 11 -16 14 5 14 4 -1 -8 -15 -13 -16 -16 -2 -34 8 -11 18 -19 22
-17 3 1 6 -8 6 -20 0 -18 -8 -24 -39 -31 -154 -34 -283 -70 -322 -89 -84 -42
-116 -106 -95 -191 10 -37 9 -40 -4 -23 -13 19 -14 18 -14 -12 0 -17 -6 -36
-12 -41 -58 -47 -71 -60 -60 -61 6 0 12 5 12 10 0 6 9 10 21 10 11 0 17 5 14
10 -3 6 -1 10 5 10 6 0 13 -7 16 -15 5 -13 9 -13 23 -3 14 12 14 11 2 -4 -7
-10 -17 -15 -22 -13 -9 6 -43 -11 -73 -38 -11 -10 -26 -15 -33 -13 -7 3 -10
-1 -6 -11 4 -10 -7 -27 -33 -50 -21 -19 -34 -32 -27 -29 8 4 7 -4 -3 -23 -16
-31 -30 -38 -144 -66 -150 -38 -172 -46 -164 -63 4 -10 12 -37 19 -61 l12 -44
87 -1 c64 -1 89 -5 96 -16 16 -25 1 -30 -95 -30 l-93 0 -11 -33 c-16 -48 -65
-102 -114 -126 l-42 -21 -3 -96 c-3 -89 -13 -124 -36 -124 -3 0 -6 30 -6 68 0
85 -10 143 -24 147 -140 38 -206 115 -206 240 0 72 23 126 76 185 56 62 116
87 324 135 215 51 227 55 284 94 66 46 93 94 98 176 6 86 30 136 93 194 61 56
128 86 288 126 149 38 161 40 151 23z m7009 -40 c16 -21 18 -35 13 -72 -5 -29
-12 -46 -21 -46 -7 0 -15 -5 -17 -11 -6 -17 -54 -14 -83 5 -37 24 -48 60 -31
100 17 42 41 57 85 53 23 -1 40 -10 54 -29z m-4674 -4 c26 -33 27 -65 4 -92
-32 -37 -66 -38 -107 -2 -43 38 -45 62 -10 95 37 34 86 34 113 -1z m2686 1
c21 -11 38 -27 41 -41 11 -43 -34 -72 -64 -41 -7 6 -17 13 -22 13 -6 1 -14 2
-20 3 -5 0 -7 7 -4 15 3 8 -1 18 -8 22 -20 13 -48 15 -48 4 0 -6 -4 -10 -10
-10 -13 0 -1 32 19 48 19 16 65 10 116 -13z m-2878 -7 c-3 -8 -6 -5 -6 6 -1
11 2 17 5 13 3 -3 4 -12 1 -19z m1771 -1 c12 -12 9 -21 -17 -63 -25 -39 -30
-44 -27 -23 5 33 -19 70 -39 63 -8 -4 -15 -1 -15 6 0 10 -3 10 -15 0 -9 -8
-15 -9 -15 -2 0 6 10 18 23 27 25 19 82 14 105 -8z m-2543 -114 c97 -90 138
-109 169 -77 14 13 16 13 16 1 0 -9 -4 -17 -8 -19 -5 -1 -5 -17 0 -35 6 -24
47 -66 166 -170 86 -75 218 -192 292 -258 186 -166 378 -335 420 -369 19 -16
35 -37 36 -46 1 -10 4 -24 8 -31 4 -8 1 -6 -7 3 -13 17 -15 17 -29 0 -25 -28
-47 -77 -53 -118 -11 -69 25 -128 118 -191 30 -21 45 -37 41 -47 -10 -26 -66
-8 -104 34 -3 3 -41 37 -85 75 -107 92 -491 443 -537 492 -20 21 -77 99 -127
173 -124 185 -174 250 -189 245 -7 -3 -10 0 -7 5 3 6 1 10 -5 10 -7 0 -10 7
-6 15 3 8 -5 26 -20 40 -24 24 -24 26 -9 62 21 50 13 80 -25 88 -16 4 -30 11
-30 16 0 6 -4 8 -8 5 -11 -6 -67 42 -59 50 3 4 26 2 49 -4 l43 -11 -59 55
c-33 30 -55 54 -50 54 5 0 32 -21 59 -47z m1233 -5 c117 -79 377 -286 471
-376 75 -71 83 -82 71 -97 -9 -11 -15 -13 -20 -5 -4 7 -9 10 -12 8 -5 -3 -49
31 -116 90 -24 21 -30 30 -17 26 l20 -5 -20 16 c-11 9 -63 46 -115 82 -52 37
-111 80 -132 97 -83 70 -106 86 -160 113 -31 15 -59 36 -61 46 -5 17 2 57 10
57 2 0 39 -23 81 -52z m2560 23 c70 -36 160 -158 186 -251 l7 -25 -21 25 c-11
14 -34 51 -52 83 -33 60 -92 130 -102 120 -3 -3 -13 0 -22 8 -9 7 -23 14 -31
15 -21 3 -26 11 -20 29 8 19 10 19 55 -4z m-2898 -29 c32 -9 33 -10 8 -11 -15
-1 -37 9 -50 22 -13 12 -17 17 -8 10 8 -6 31 -16 50 -21z m1820 0 c39 -38 46
-58 40 -117 -2 -21 -26 -45 -44 -45 -6 0 0 7 12 16 26 18 28 30 7 50 -13 14
-15 14 -15 0 0 -17 -25 -22 -34 -7 -9 14 -10 53 -1 84 9 34 -9 37 -36 5 -24
-26 -24 -76 -2 -108 16 -23 16 -24 0 -11 -44 35 -61 119 -30 153 25 28 58 22
103 -20z m-933 -126 c51 -48 106 -104 122 -124 l29 -38 -36 4 c-20 2 -47 13
-58 24 -12 10 -25 18 -30 16 -5 -2 -10 1 -11 6 -2 12 -52 40 -92 52 -11 4 -10
7 4 18 14 10 15 15 5 21 -9 5 -11 4 -6 -3 4 -7 2 -12 -3 -12 -6 0 -11 5 -11
10 0 6 -5 10 -10 10 -6 0 -22 12 -35 26 -20 21 -22 30 -14 41 9 11 8 12 -5 7
-11 -4 -19 1 -25 17 l-8 24 -7 -23 c-5 -13 -10 -21 -13 -19 -2 3 5 24 17 47
l21 41 37 -29 c20 -17 78 -69 129 -116z m3160 138 c-3 -3 -12 -4 -19 -1 -8 3
-5 6 6 6 11 1 17 -2 13 -5z m86 -11 c-7 -2 -19 -2 -25 0 -7 3 -2 5 12 5 14 0
19 -2 13 -5z m84 1 c-3 -3 -12 -4 -19 -1 -8 3 -5 6 6 6 11 1 17 -2 13 -5z
m-1418 -133 c6 -39 11 -80 10 -93 -1 -23 -1 -23 -9 2 -4 14 -8 44 -9 67 -1 23
-8 48 -16 57 -19 18 -19 36 -1 36 9 0 17 -23 25 -69z m-5414 29 c3 -5 1 -10
-4 -10 -6 0 -11 5 -11 10 0 6 2 10 4 10 3 0 8 -4 11 -10z m2885 -50 c88 -67
101 -82 71 -77 -22 3 -170 116 -171 130 0 17 26 3 100 -53z m-3868 40 c107
-30 163 -156 106 -240 -38 -55 -72 -74 -132 -74 -102 0 -158 51 -164 149 -5
74 21 119 88 153 51 25 52 25 102 12z m4873 -21 c43 -11 84 -42 68 -52 -4 -2
-33 -12 -63 -22 -30 -10 -68 -24 -85 -33 -29 -15 -30 -15 -78 39 -84 94 -84
93 22 86 50 -4 111 -12 136 -18z m-3928 -66 c-3 -10 -5 -4 -5 12 0 17 2 24 5
18 2 -7 2 -21 0 -30z m1383 -18 c0 -11 -14 7 -31 40 -7 13 -3 12 10 -5 11 -14
21 -29 21 -35z m-883 38 c-4 -3 1 -12 11 -19 15 -12 15 -15 2 -24 -12 -8 -13
-12 -2 -19 13 -8 4 -16 -26 -22 -10 -2 -119 -76 -165 -112 -37 -29 -100 -106
-127 -157 -8 -14 -17 -77 -21 -140 -10 -164 -21 -215 -43 -207 -7 3 -19 1 -27
-5 -11 -8 -11 -9 3 -5 16 6 35 -20 23 -31 -3 -3 -5 0 -5 7 0 7 -10 10 -25 7
-31 -6 -45 -14 -45 -27 0 -6 5 -7 10 -4 6 3 10 2 10 -3 0 -6 -7 -12 -15 -16
-10 -3 -15 1 -15 11 0 14 -2 15 -17 1 -10 -8 -50 -34 -89 -56 -39 -23 -86 -58
-104 -79 -36 -41 -77 -121 -86 -170 -4 -23 -12 -33 -24 -33 -23 0 -34 32 -31
90 5 104 77 188 236 275 143 78 158 97 169 215 7 80 23 179 36 223 22 75 164
202 315 281 50 26 64 31 52 19z m6017 -22 c-7 -8 -35 9 -29 19 4 6 11 5 20 -3
7 -6 11 -14 9 -16z m-5099 -51 c16 -17 16 -20 3 -15 -9 4 -19 13 -22 21 -7 19
-2 18 19 -6z m2603 9 c-6 -17 -161 -70 -172 -59 -6 6 10 17 40 30 27 11 58 24
69 29 29 14 67 13 63 0z m-792 -134 c136 -94 230 -188 268 -269 40 -85 31 -89
-18 -6 -62 107 -124 171 -237 245 -53 36 -100 65 -104 65 -16 0 -105 66 -105
78 0 18 35 -3 196 -113z m1062 86 c30 -41 39 -81 18 -81 -9 0 -16 8 -16 18 0
9 -14 34 -31 55 -26 32 -28 37 -12 37 11 0 29 -13 41 -29z m212 4 c0 -23 -3
-25 -27 -19 -15 4 -33 7 -40 7 -7 0 -13 4 -13 8 0 12 32 28 58 29 17 0 22 -6
22 -25z m-4510 -35 c0 -5 -5 -10 -11 -10 -5 0 -7 5 -4 10 3 6 8 10 11 10 2 0
4 -4 4 -10z m1493 -36 c37 -61 79 -163 73 -177 -2 -7 -5 -5 -5 3 -1 17 -56
129 -92 186 -11 19 -17 34 -12 34 4 0 21 -21 36 -46z m2257 -6 l41 -52 -37
-22 c-31 -19 -39 -20 -50 -9 -8 7 -14 18 -14 23 0 5 -11 13 -24 16 -13 3 -26
15 -29 27 -5 18 -8 19 -29 8 -22 -12 -22 -11 -8 6 14 16 84 54 102 55 4 0 26
-23 48 -52z m-2913 -110 c16 -18 18 -46 21 -291 3 -269 3 -272 -18 -289 -34
-27 -76 -23 -97 9 -16 24 -18 55 -18 291 l0 264 27 23 c30 26 57 24 85 -7z
m3058 -8 c20 -8 20 -9 -1 -9 -22 -1 -55 -28 -80 -66 -22 -34 -34 -31 -34 7 0
60 56 93 115 68z m-3955 -20 c18 -10 40 -59 40 -89 0 -13 -2 -13 -9 -3 -7 11
-10 10 -15 -3 -3 -9 -4 -21 -1 -25 8 -13 -17 -60 -28 -53 -6 3 -7 2 -4 -4 9
-14 -22 -55 -35 -47 -6 4 -8 2 -5 -4 4 -5 -7 -22 -24 -36 -35 -30 -98 -34
-138 -9 -20 13 -23 21 -18 57 7 51 51 93 106 102 38 6 39 7 45 57 4 28 9 54
12 59 7 11 51 10 74 -2z m4039 -69 c26 -37 27 -65 1 -91 -20 -20 -56 -28 -45
-10 3 6 -3 10 -14 10 -23 0 -46 30 -56 72 -6 23 -3 29 16 37 46 18 76 13 98
-18z m-3406 -85 c4 -10 -12 -26 -45 -48 -28 -18 -56 -36 -62 -40 -7 -5 -10
-48 -8 -126 l4 -119 -31 -5 -32 -5 3 136 3 136 63 43 c67 44 96 52 105 28z
m594 -68 c-2 -13 -4 -3 -4 22 0 25 2 35 4 23 2 -13 2 -33 0 -45z m52 -200 c0
-59 6 -140 11 -180 6 -40 14 -172 18 -293 7 -205 10 -223 32 -269 46 -90 115
-153 250 -228 25 -14 79 -46 120 -71 41 -26 86 -47 101 -47 62 0 119 -84 99
-146 -14 -40 -53 -74 -87 -74 -41 0 -96 38 -130 89 -21 32 -52 61 -90 84 -154
92 -209 122 -223 122 -8 0 -15 6 -15 14 0 8 -17 23 -37 34 -21 10 -38 23 -38
29 0 16 -47 68 -55 60 -4 -4 -5 -2 -3 3 4 15 -23 76 -32 70 -4 -3 -11 2 -14
11 -3 9 -2 12 5 8 9 -5 -8 33 -21 46 -3 3 -7 21 -8 40 -2 19 -8 37 -13 38 -6
2 -5 10 2 18 8 10 8 14 0 14 -6 0 -12 19 -13 43 -1 40 -2 40 -8 -13 l-7 -55
-1 72 c-1 39 3 75 8 78 6 3 9 36 8 73 l-1 67 -7 -50 c-4 -30 -7 15 -6 115 0
145 1 153 6 65 5 -88 7 -93 10 -40 l3 60 7 -65 c5 -46 7 -11 9 120 1 102 8
221 16 265 7 44 13 72 14 63 1 -21 17 -24 24 -5 3 9 9 9 26 -1 20 -12 21 -10
23 30 2 75 16 -74 17 -194z m-32 190 c-3 -7 -5 -2 -5 12 0 14 2 19 5 13 2 -7
2 -19 0 -25z m2083 -70 c-95 -94 -138 -121 -112 -71 21 39 177 173 201 173 8
0 -32 -46 -89 -102z m509 27 c33 -31 67 -55 79 -55 23 0 50 -48 82 -149 l17
-54 -31 -50 c-28 -45 -31 -58 -30 -126 1 -138 48 -264 179 -481 38 -63 63
-114 59 -121 -4 -8 -3 -9 4 -5 12 7 65 -93 111 -207 45 -112 14 -64 -84 130
-112 219 -144 273 -162 273 -14 0 -32 30 -38 62 -3 11 -20 57 -39 102 -32 74
-76 240 -76 283 0 15 2 16 10 3 8 -12 10 -9 10 12 0 15 3 29 8 32 11 7 7 142
-5 168 -6 13 -21 45 -33 71 -13 27 -30 51 -39 54 -9 4 -33 24 -54 45 -20 22
-42 36 -47 33 -6 -3 -10 1 -10 9 0 24 -25 19 -59 -10 -36 -30 -41 -21 -9 13
15 16 33 23 60 23 34 0 47 -8 97 -55z m-109 21 c0 -3 -4 -8 -10 -11 -5 -3 -10
-1 -10 4 0 6 5 11 10 11 6 0 10 -2 10 -4z m3804 -45 c21 -23 18 -60 -5 -74
-24 -15 -68 0 -81 29 -11 23 -9 29 11 45 30 24 53 24 75 0z m-5028 -222 c105
-96 231 -210 281 -254 67 -59 87 -82 77 -88 -8 -4 -18 -6 -23 -2 -5 3 -13 0
-17 -6 -5 -8 -2 -10 7 -5 8 4 5 0 -5 -8 -11 -9 -24 -16 -29 -16 -4 0 -6 -4 -3
-9 10 -16 -70 -30 -219 -36 -82 -4 -152 -9 -154 -11 -2 -2 -11 2 -19 9 -13 10
-14 9 -7 -3 8 -13 7 -13 -9 -1 -9 8 -15 20 -12 27 3 7 -3 18 -12 26 -15 11
-16 11 -7 -2 6 -9 -3 0 -20 19 -16 19 -30 37 -29 40 0 3 -9 14 -20 23 -12 10
-16 17 -10 18 6 0 17 -7 24 -15 14 -17 50 -20 50 -4 0 15 -115 231 -165 309
-60 95 -61 98 -38 78 30 -28 78 -23 103 10 18 22 21 36 17 79 l-5 51 26 -27
c15 -15 113 -106 218 -202z m1580 145 c33 -113 34 -138 7 -142 -18 -3 -25 6
-42 53 -12 31 -21 61 -21 68 0 7 -8 26 -18 42 -19 30 -19 30 7 47 14 9 30 15
35 14 5 -1 19 -38 32 -82z m-926 20 c7 -7 -17 -10 -68 -9 -71 0 -82 -3 -118
-29 l-39 -29 30 32 c17 18 39 37 50 42 25 11 132 6 145 -7z m-50 -38 c0 -8 -5
-18 -11 -22 -6 -3 -18 -22 -26 -41 -11 -27 -11 -38 -2 -49 18 -22 48 -17 55
10 3 15 11 23 19 20 15 -6 10 -30 -13 -56 -20 -24 -37 -23 -61 3 -33 36 -35
67 -6 110 26 40 45 50 45 25z m455 -4 c-23 -20 -209 -144 -224 -149 -9 -3 36
31 99 75 63 45 119 81 125 82 6 0 6 -3 0 -8z m185 -18 c0 -7 3 -21 6 -31 6
-15 3 -14 -15 4 -25 26 -27 40 -6 40 8 0 15 -6 15 -13z m50 -59 c0 -5 -9 4
-20 20 -11 17 -20 35 -20 40 0 6 9 -3 20 -20 11 -16 20 -34 20 -40z m-145 34
c4 -5 4 -21 1 -35 -5 -20 -12 -25 -33 -22 -37 4 -54 35 -29 54 23 17 52 18 61
3z m-2508 -101 c-2 -13 -4 -3 -4 22 0 25 2 35 4 23 2 -13 2 -33 0 -45z m2436
11 c60 -47 65 -59 66 -154 2 -148 56 -271 185 -420 139 -162 154 -181 231
-294 138 -204 162 -283 114 -366 -15 -24 -20 -47 -17 -75 4 -46 1 -48 -27 -20
-11 11 -90 75 -175 143 -85 68 -182 145 -216 172 -33 28 -99 82 -147 120 -47
39 -86 73 -87 76 0 4 23 15 52 25 47 17 54 24 85 83 l33 64 -66 73 c-36 41
-102 101 -147 133 -45 33 -93 68 -105 78 -28 21 -41 77 -42 175 0 81 9 94 125
173 44 29 81 54 83 54 1 1 26 -18 55 -40z m109 -26 c-7 -65 -12 -67 -12 -5 0
29 4 52 9 52 5 0 6 -21 3 -47z m3306 26 c95 -28 200 -134 237 -239 9 -25 19
-80 22 -122 6 -87 9 -83 -68 -91 l-47 -4 -6 52 c-16 139 -88 241 -192 271 -48
14 -79 15 -173 9 -165 -10 -182 -10 -191 5 -22 35 24 121 50 97 10 -9 12 -8 7
5 -7 21 7 23 185 26 82 2 153 -2 176 -9z m-4094 -31 c-20 -39 -13 -91 18 -133
15 -21 16 -26 4 -16 -25 21 -46 66 -46 100 0 34 19 81 32 81 5 0 1 -14 -8 -32z
m1239 -34 c60 -275 164 -614 246 -805 44 -104 48 -119 29 -119 -12 1 -30 35
-69 128 -8 17 -17 32 -22 32 -9 0 -106 194 -164 330 -96 225 -136 391 -106
438 14 23 50 43 68 38 5 -1 13 -20 18 -42z m-1963 -5 c16 -28 -11 -69 -45 -69
-33 0 -52 38 -36 69 16 28 66 29 81 0z m1115 11 c-3 -5 -11 -10 -16 -10 -6 0
-7 5 -4 10 3 6 11 10 16 10 6 0 7 -4 4 -10z m-2752 -11 c33 -15 60 -64 53 -95
-4 -15 -11 -22 -18 -18 -6 4 -9 1 -6 -7 8 -24 -19 -39 -70 -39 -43 0 -55 -5
-96 -41 -25 -23 -52 -51 -58 -63 -8 -15 -11 -112 -10 -326 1 -253 -2 -313 -15
-352 -9 -28 -20 -45 -26 -41 -6 4 -8 0 -4 -10 3 -9 0 -20 -8 -24 -12 -7 -12
-15 0 -55 19 -66 1 -124 -56 -177 -27 -25 -95 -36 -129 -21 -60 27 -116 71
-104 83 3 3 -1 16 -9 29 -12 17 -14 34 -7 67 10 56 33 86 109 141 35 25 68 54
74 65 8 13 14 119 17 315 5 294 5 295 32 352 36 77 81 131 141 171 85 55 141
68 190 46z m6928 -58 c29 -30 40 -83 19 -96 -5 -3 -10 -11 -10 -16 0 -6 6 -7
13 -3 15 9 -12 -26 -32 -42 -17 -14 -80 -3 -118 20 l-28 17 28 -25 c32 -29 21
-36 -13 -8 -16 13 -24 32 -28 70 -4 47 -2 54 26 82 42 42 101 42 143 1z
m-4241 -30 c0 -11 3 -28 7 -38 6 -14 9 -10 13 17 3 23 11 36 23 38 16 3 18 -2
15 -35 l-3 -38 -50 -3 c-31 -1 -45 1 -37 6 7 5 12 13 11 18 -1 5 -1 19 0 32 1
27 21 30 21 3z m3774 -29 c2 -4 -4 -8 -15 -8 -10 0 -19 4 -19 8 0 4 6 8 14 8
8 0 17 -4 20 -8z m-1814 -28 c0 -2 -7 -4 -15 -4 -8 0 -15 4 -15 10 0 5 7 7 15
4 8 -4 15 -8 15 -10z m-5792 -44 c18 -11 40 -36 48 -55 l14 -35 115 0 115 0 0
-25 0 -25 -119 0 c-119 0 -120 0 -149 -29 -40 -41 -74 -48 -123 -25 -51 22
-69 48 -69 97 0 49 13 73 53 97 41 25 74 25 115 0z m1530 -6 c16 -11 22 -25
22 -54 0 -40 -8 -49 -109 -123 -86 -62 -101 -137 -101 -491 0 -262 -6 -307
-51 -400 -61 -125 -187 -221 -373 -282 -127 -42 -220 -89 -235 -118 -5 -12
-20 -58 -32 -103 -21 -81 -22 -83 -66 -104 -33 -16 -56 -20 -90 -16 -57 6 -92
31 -120 87 -46 88 -19 185 66 239 54 35 133 64 335 122 163 47 220 75 293 146
74 72 104 141 112 257 l6 91 6 -70 5 -70 2 83 c2 61 -1 81 -10 80 -9 -2 -14
14 -16 51 -3 48 -1 53 12 41 22 -17 22 6 0 49 -13 27 -15 59 -12 179 4 137 6
151 32 203 34 68 100 135 180 183 65 39 108 45 144 20z m2326 -25 c3 -17 6
-47 6 -65 0 -29 -3 -34 -24 -34 -20 0 -24 6 -30 46 -10 76 -8 84 18 84 18 0
25 -7 30 -31z m30 9 c14 -71 14 -98 0 -98 -10 0 -14 12 -14 38 0 20 -3 47 -6
60 -4 13 -2 22 5 22 6 0 13 -10 15 -22z m-1632 -12 c29 9 37 -10 39 -91 2 -84
11 -131 26 -128 6 1 9 -6 6 -17 -3 -11 0 -20 6 -20 6 0 11 6 11 13 0 6 9 -1
19 -18 10 -16 44 -54 74 -84 31 -30 53 -59 50 -64 -3 -6 -1 -7 5 -3 16 9 80
-40 78 -60 0 -9 10 -23 24 -31 l25 -15 -24 21 c-13 12 -21 24 -18 27 3 4 35
-19 71 -49 38 -32 60 -58 53 -61 -9 -3 -8 -8 3 -16 13 -10 12 -11 -3 -6 -12 4
-17 2 -15 -6 3 -7 15 -14 27 -14 13 -1 27 -7 31 -14 5 -8 15 -10 26 -6 10 4
15 4 11 0 -4 -4 0 -15 8 -24 14 -16 14 -18 0 -24 -9 -3 -13 -2 -10 4 3 6 -1
10 -9 10 -9 0 -16 4 -16 10 0 5 -12 13 -27 16 -16 4 -38 16 -51 27 l-23 21 23
19 23 19 -28 -7 c-15 -3 -33 -2 -40 2 -7 4 -17 8 -24 9 -7 1 -25 11 -40 22
-42 30 -102 62 -116 62 -17 0 62 -63 94 -75 35 -13 119 -86 119 -104 0 -8 -17
0 -42 21 -24 19 -65 50 -93 68 -27 19 -57 41 -65 49 -8 9 -35 30 -59 46 -84
56 -159 134 -191 197 -27 55 -30 71 -30 152 0 98 7 139 21 130 5 -3 9 1 9 8 0
8 5 6 11 -5 7 -12 17 -16 31 -11z m486 -21 c38 -32 56 -76 48 -119 -8 -41 -40
-85 -64 -85 -9 0 -29 -3 -44 -7 -20 -4 -39 0 -65 16 l-38 22 20 -22 20 -23
-26 17 c-32 20 -54 82 -45 129 16 85 129 127 194 72z m996 -34 c7 -28 10 -51
6 -51 -7 0 -30 77 -30 101 0 24 10 2 24 -50z m4289 42 c-7 -2 -21 -2 -30 0
-10 3 -4 5 12 5 17 0 24 -2 18 -5z m-7545 -48 l27 -25 -33 0 c-50 0 -108 -35
-134 -80 -26 -45 -41 -47 -46 -7 -4 32 30 92 61 109 19 10 65 24 90 27 4 1 20
-10 35 -24z m498 -21 c-6 -19 -12 -28 -14 -20 -3 13 14 56 22 56 2 0 -2 -16
-8 -36z m5034 -61 c263 -105 495 -344 586 -604 46 -132 66 -310 45 -404 -5
-24 -8 -14 -14 45 -22 248 -129 476 -302 645 -97 94 -105 100 -254 194 -62 39
-132 86 -154 104 l-41 32 29 6 c22 5 24 7 10 9 -11 1 -24 2 -28 1 -5 -1 -6 3
-2 8 6 11 9 10 125 -36z m-5440 -59 c1 -68 -56 -124 -127 -124 -34 0 -46 6
-67 31 -27 32 -43 75 -32 86 3 4 6 -1 6 -10 0 -20 60 -57 94 -57 15 0 36 5 48
11 26 14 50 72 42 107 l-6 27 21 -25 c11 -14 21 -34 21 -46z m3504 7 c39 -33
82 -74 94 -91 13 -17 34 -36 48 -42 24 -11 33 -42 15 -52 -5 -4 -45 27 -88 67
-43 40 -95 89 -116 108 -97 86 -56 94 47 10z m3420 10 c24 -27 17 -72 -14 -88
-20 -10 -29 -9 -56 8 -38 23 -41 23 -47 2 -3 -10 -5 -4 -6 13 -1 33 18 56 59
73 36 14 45 13 64 -8z m747 4 c118 -62 72 -255 -61 -255 l-30 0 0 -197 c0
-109 -5 -227 -11 -263 -22 -135 -123 -266 -254 -326 -91 -42 -158 -53 -388
-60 -140 -5 -191 -10 -202 -20 -7 -8 -21 -14 -31 -14 -28 0 -8 86 34 140 2 3
88 8 190 11 210 6 231 12 348 95 68 48 108 94 149 169 l27 50 -4 297 -3 298
24 17 c108 79 149 90 212 58z m-409 -22 c30 -29 38 -75 16 -97 -18 -17 -72
-43 -107 -51 -23 -5 -33 -1 -50 21 -34 43 -23 101 29 141 27 22 81 15 112 -14z
m-3863 -14 c20 -18 68 -60 106 -94 39 -35 85 -76 104 -92 24 -21 32 -35 28
-47 -6 -16 -12 -14 -49 16 -24 18 -78 68 -122 111 -43 43 -89 85 -102 94 -25
16 -33 43 -13 43 6 0 28 -14 48 -31z m571 -33 c0 -12 -5 -7 -19 24 -11 24 -11
24 3 6 9 -11 16 -24 16 -30z m-627 -18 c27 -20 85 -71 129 -113 67 -63 78 -78
68 -90 -18 -22 -29 -18 -40 11 -6 15 -14 22 -22 18 -6 -4 -8 -3 -4 4 9 15 -38
81 -79 109 -19 13 -35 28 -35 33 0 5 -11 12 -25 16 -14 3 -25 10 -25 16 0 5
-4 6 -10 3 -5 -3 -7 0 -4 9 4 11 0 14 -15 11 -12 -2 -19 0 -16 5 9 15 26 8 78
-32z m3512 -46 c-3 -3 -11 0 -18 7 -9 10 -8 11 6 5 10 -3 15 -9 12 -12z m442
-190 c-2 -160 -3 -169 -30 -224 -72 -146 -193 -222 -432 -269 -47 -9 -68 -19
-97 -48 -42 -42 -68 -39 -68 7 0 64 52 97 216 137 134 33 173 53 240 119 86
87 114 165 114 324 0 76 3 89 23 108 12 12 25 20 29 17 4 -2 7 -79 5 -171z
m-3902 158 c3 -6 -1 -7 -9 -4 -18 7 -21 14 -7 14 6 0 13 -4 16 -10z m-7 -71
c75 -64 77 -66 63 -87 -6 -10 -18 -3 -49 30 -23 24 -40 48 -38 54 3 7 -3 10
-14 7 -10 -3 -21 1 -25 8 -6 8 -4 10 6 4 8 -5 3 4 -10 18 -43 47 -7 29 67 -34z
m-3888 41 c33 -18 44 -51 47 -149 4 -116 18 -150 80 -195 66 -48 123 -66 213
-66 92 0 120 -15 120 -64 0 -57 -27 -71 -141 -72 -55 0 -94 3 -87 8 10 6 8 8
-4 8 -9 0 -25 3 -35 6 -14 5 -15 4 -3 -4 11 -8 7 -11 -18 -10 -17 1 -29 4 -27
9 3 4 -3 5 -13 2 -49 -12 -142 56 -196 145 -42 71 -52 110 -61 237 -6 100 -6
101 21 128 28 29 70 35 104 17z m3200 -10 c0 -18 49 -35 62 -22 15 15 82 16
73 2 -3 -5 0 -7 9 -4 16 6 347 -47 436 -71 37 -9 64 -24 82 -45 29 -32 83 -41
106 -18 7 7 15 8 24 1 7 -5 74 -59 148 -119 444 -361 564 -455 644 -500 22
-13 35 -24 29 -24 -22 0 -53 -39 -53 -65 0 -14 -5 -25 -12 -25 -6 0 -19 -6
-27 -14 -21 -19 -222 -48 -338 -50 -51 0 -84 -4 -75 -8 10 -4 1 -7 -24 -7 -27
-1 -47 5 -61 18 -12 11 -23 18 -25 15 -3 -2 -20 11 -39 28 -20 18 -26 26 -15
18 21 -15 21 -15 2 7 -10 13 -23 20 -28 17 -10 -6 -50 24 -208 157 -41 34 -77
64 -80 66 -2 2 2 8 10 13 10 7 11 10 3 10 -7 0 -13 7 -13 16 0 8 -5 12 -11 9
-6 -4 -8 -14 -4 -22 6 -18 -40 15 -128 90 -49 42 -55 51 -42 61 10 7 13 18 9
29 -7 20 -31 23 -31 3 0 -8 6 -12 14 -9 7 3 13 1 13 -5 0 -5 -7 -13 -16 -16
-18 -7 -60 24 -159 119 -33 32 -98 93 -143 136 -53 49 -81 82 -76 90 4 8 3 9
-4 5 -15 -9 -44 19 -66 62 -9 17 -19 32 -22 32 -3 0 -2 -6 2 -12 4 -7 -2 -5
-14 6 -12 10 -19 23 -16 27 7 13 64 11 64 -1z m60 -10 c0 -5 -7 -7 -15 -4 -8
4 -15 8 -15 10 0 2 7 4 15 4 8 0 15 -4 15 -10z m1364 -68 c48 -74 135 -234
160 -294 23 -53 1 -58 -25 -6 -31 62 -105 183 -156 256 -38 54 -42 66 -31 80
10 12 10 14 1 8 -13 -7 -18 6 -6 17 10 11 10 11 57 -61z m-4182 -49 c33 -32
42 -66 28 -109 -13 -39 -62 -84 -92 -84 -35 0 -88 32 -103 61 -32 61 -12 121
50 154 38 19 81 11 117 -22z m1181 -75 c14 -26 28 -44 32 -40 5 4 5 -1 2 -10
-4 -10 -2 -17 5 -15 6 1 13 -4 16 -12 3 -9 0 -11 -8 -6 -9 5 -11 4 -6 -4 4 -6
11 -9 16 -6 9 6 24 -13 25 -30 1 -5 6 -9 11 -8 6 1 9 -10 7 -25 -3 -23 -2 -24
6 -7 6 13 10 -192 10 -570 1 -352 5 -604 11 -624 15 -53 57 -106 119 -152 31
-23 58 -44 60 -45 9 -7 -22 -124 -33 -124 -23 0 -128 67 -187 120 -48 42 -71
73 -98 130 l-36 75 1 665 c2 673 4 755 16 742 3 -4 17 -28 31 -54z m22 16 c9
-15 12 -23 6 -20 -11 7 -35 46 -28 46 3 0 12 -12 22 -26z m5809 -17 c18 -18
13 -48 -9 -63 -30 -20 -69 8 -61 42 4 16 2 24 -6 24 -9 0 -8 3 2 10 17 12 57
5 74 -13z m-5758 -54 c15 -20 23 -33 16 -29 -13 8 -56 66 -49 66 3 0 17 -17
33 -37z m944 -33 c0 -5 -4 -10 -10 -10 -5 0 -10 5 -10 10 0 6 5 10 10 10 6 0
10 -4 10 -10z m37 -16 c-3 -3 -12 -4 -19 -1 -8 3 -5 6 6 6 11 1 17 -2 13 -5z
m-1804 -19 c-3 -9 -8 -14 -10 -11 -3 3 -2 9 2 15 9 16 15 13 8 -4z m1842 -15
c26 -29 15 -32 -15 -4 -13 13 -20 24 -14 24 6 0 19 -9 29 -20z m45 0 c0 -5 -4
-10 -10 -10 -5 0 -10 5 -10 10 0 6 5 10 10 10 6 0 10 -4 10 -10z m-48 -51 c63
-55 82 -88 97 -164 l9 -50 1 40 c1 57 -14 103 -49 147 -29 36 -22 55 9 26 11
-11 12 -8 6 17 l-7 30 28 -25 c24 -22 26 -23 20 -5 -4 12 7 5 29 -19 49 -54
63 -114 70 -304 5 -165 10 -188 49 -230 39 -44 68 -52 185 -52 93 0 116 3 143
20 50 30 92 26 135 -14 32 -29 38 -40 38 -76 0 -36 -6 -47 -39 -77 -32 -29
-43 -34 -69 -29 -17 4 -42 14 -56 23 -20 13 -50 16 -154 15 -71 -1 -133 -5
-139 -8 -7 -4 -8 -2 -4 4 4 7 23 12 42 12 21 0 33 4 29 10 -10 16 -108 13 -99
-2 4 -7 -4 -4 -17 7 -13 11 -40 28 -59 38 -45 23 -107 100 -123 152 -7 25 -12
107 -12 220 0 152 -3 185 -17 210 -25 43 -54 75 -69 75 -7 0 -10 3 -6 6 3 3
-6 17 -21 30 -15 13 -22 23 -17 24 6 0 36 -23 67 -51z m2305 14 c3 -7 -3 -10
-15 -6 -13 3 -28 -6 -45 -27 -31 -36 -33 -53 -11 -95 14 -28 14 -29 -2 -13 -9
9 -19 38 -22 67 -4 48 -3 51 29 71 36 21 60 23 66 3z m53 -97 c0 -38 -61 -51
-80 -17 -16 31 -12 59 13 76 21 15 23 14 45 -10 12 -14 22 -37 22 -49z m-2862
29 c-3 -3 -9 2 -12 12 -6 14 -5 15 5 6 7 -7 10 -15 7 -18z m1132 -112 c75 -76
94 -99 55 -66 -86 72 -190 183 -172 183 1 0 54 -53 117 -117z m-1105 89 c-3
-3 0 -11 6 -19 17 -20 5 -16 -14 5 -15 16 -15 19 -2 19 8 0 13 -3 10 -5z
m2590 -80 c28 -15 54 -37 60 -49 5 -13 14 -23 20 -24 5 0 17 -2 25 -5 80 -23
116 -16 168 30 l37 34 24 -20 25 -19 -41 -41 c-28 -27 -51 -42 -74 -44 -25 -3
-30 -1 -19 6 13 9 13 10 0 10 -13 0 -13 1 0 10 20 13 33 13 25 0 -3 -5 -1 -10
4 -10 6 0 12 5 12 10 3 20 4 25 12 37 4 7 -15 1 -42 -13 -47 -25 -53 -26 -102
-14 -28 7 -60 21 -69 30 -23 23 -110 74 -110 65 0 -4 -7 -2 -15 5 -14 12 -12
30 3 30 4 0 30 -13 57 -28z m459 -171 c9 -8 26 -27 37 -43 20 -27 20 -28 2
-28 -11 0 -45 24 -77 53 -54 50 -57 54 -46 81 l10 28 29 -38 c15 -22 35 -45
45 -53z m-2092 62 c21 -18 26 -93 6 -93 -6 0 -22 -9 -34 -21 -28 -26 -59 -18
-79 21 -13 25 -13 33 0 63 8 19 20 37 27 40 27 11 62 6 80 -10z m1582 -42 c-7
-9 -24 13 -24 32 0 21 1 21 13 -3 8 -14 12 -27 11 -29z m41 0 c-3 -12 -10 -21
-15 -21 -5 0 -4 11 2 25 13 29 23 26 13 -4z m-2375 -6 c16 -8 34 -24 40 -34
13 -25 13 -68 0 -76 -5 -3 -10 -17 -10 -30 0 -35 -39 -75 -81 -81 -30 -5 -41
-1 -72 26 -32 28 -37 38 -37 75 0 24 -4 45 -9 47 -17 6 9 48 41 68 39 24 88
26 128 5z m-2057 -32 c59 -3 107 -8 107 -14 0 -5 -5 -9 -10 -9 -7 0 -7 -6 0
-20 10 -19 8 -20 -94 -20 -59 0 -108 -4 -111 -10 -17 -28 -85 5 -85 41 0 25
40 51 65 43 11 -4 68 -9 128 -11z m3437 2 c37 -19 70 -74 70 -116 0 -89 -96
-153 -171 -115 -39 19 -42 20 -33 4 5 -9 2 -9 -9 1 -20 16 -23 25 -4 15 6 -4
0 4 -15 19 -36 34 -44 71 -27 121 26 74 117 108 189 71z m1314 3 c-5 -8 -2 -9
11 -5 20 8 128 -69 122 -87 -8 -24 -38 -15 -95 31 -45 36 -58 51 -50 60 13 16
22 17 12 1z m-67 -61 c11 4 14 3 9 -6 -6 -8 -2 -11 10 -9 14 2 18 -2 16 -16
-3 -17 -1 -18 11 -7 9 7 18 8 21 2 4 -5 -2 -11 -11 -13 -23 -4 -94 42 -86 56
5 7 8 6 10 -1 3 -7 11 -9 20 -6z m313 -51 c0 -7 -10 -16 -22 -19 -28 -8 -34
-2 -17 17 17 19 39 20 39 2z m-176 -38 c-8 -13 -38 -9 -63 9 -23 16 -23 17 -5
24 21 7 76 -19 68 -33z m348 -18 c40 -21 102 -54 137 -72 63 -32 88 -58 57
-58 -8 0 -32 10 -53 23 -21 12 -83 45 -137 72 -93 47 -128 75 -93 75 9 0 48
-18 89 -40z m-242 0 c0 -5 -2 -10 -4 -10 -3 0 -8 5 -11 10 -3 6 -1 10 4 10 6
0 11 -4 11 -10z m-2769 -40 l30 -30 -7 -94 c-6 -90 -5 -98 20 -150 30 -62 88
-112 286 -252 195 -137 225 -160 259 -202 56 -71 64 -102 71 -282 7 -187 14
-211 83 -280 23 -22 66 -53 96 -68 49 -23 71 -27 200 -33 81 -4 160 -11 177
-17 134 -43 258 -165 305 -298 16 -46 18 -72 14 -170 -10 -195 -42 -284 -139
-380 -36 -35 -70 -64 -75 -64 -6 0 -11 -13 -11 -29 0 -21 -10 -38 -36 -61 -38
-33 -34 -33 -128 -17 -25 5 -45 44 -46 89 0 52 38 94 104 113 61 18 87 43 146
140 42 69 42 71 44 170 1 112 -9 179 -26 169 -7 -4 -8 -2 -4 5 9 14 -33 89
-74 129 -17 17 -55 42 -84 56 -48 23 -68 26 -159 26 -130 0 -195 12 -273 50
-77 38 -130 80 -188 151 -62 75 -72 111 -80 274 -6 121 -11 147 -33 195 -33
68 -132 168 -199 200 -27 12 -70 43 -95 67 -25 24 -74 61 -109 81 -131 76
-185 183 -193 383 l-5 105 42 27 c22 15 45 27 49 27 5 0 22 -13 38 -30z m3021
-42 c134 -66 174 -96 154 -115 -3 -3 -40 15 -83 39 -43 25 -113 63 -155 84
-43 21 -78 45 -78 52 0 6 3 12 8 13 4 0 73 -33 154 -73z m-55 -54 c70 -36 136
-73 146 -81 16 -15 16 -18 2 -32 -15 -15 -19 -13 -48 22 -18 20 -36 37 -42 37
-17 0 -215 103 -215 112 0 18 36 5 157 -58z m-4327 36 c-12 -8 -13 -13 -3 -29
19 -30 -1 -65 -48 -87 -21 -11 -39 -22 -39 -26 0 -5 -5 -8 -11 -8 -16 0 -136
-97 -143 -115 -3 -8 16 2 42 23 79 61 102 77 105 72 1 -3 14 6 27 19 34 32 70
55 76 49 5 -6 -113 -95 -155 -118 -14 -7 -47 -33 -75 -59 -32 -30 -47 -39 -42
-26 4 13 -1 10 -18 -10 -13 -16 -22 -34 -19 -40 2 -5 -1 -3 -9 6 -7 9 -21 15
-31 13 -33 -5 -40 33 -16 84 38 78 111 140 239 204 102 51 162 75 120 48z
m6675 -18 c12 -9 24 -25 28 -36 5 -11 -4 -7 -22 13 -16 17 -35 31 -43 31 -7
-1 -1 -7 14 -16 15 -8 31 -26 34 -39 3 -14 10 -22 15 -19 15 9 10 -29 -6 -50
-17 -23 -20 -14 -4 17 10 21 10 21 -5 3 -9 -11 -16 -27 -16 -37 0 -20 -24 -42
-35 -31 -5 4 -5 2 -2 -4 9 -15 -19 -38 -33 -29 -6 4 -9 14 -5 23 5 14 4 14
-12 0 -10 -9 -36 -25 -58 -36 -22 -12 -35 -21 -28 -22 6 0 28 10 48 21 25 15
39 19 47 11 15 -15 -1 -35 -22 -29 -11 3 -27 -1 -37 -8 -10 -6 -31 -15 -48
-18 -16 -3 -24 -4 -17 -1 40 18 -7 24 -175 24 -125 0 -183 -4 -173 -10 12 -8
10 -10 -8 -10 -16 0 -21 4 -16 13 6 9 4 9 -7 1 -20 -16 -61 -25 -53 -12 4 6
-2 8 -15 3 -29 -9 -53 12 -46 39 3 12 2 15 -1 8 -3 -6 -10 -10 -15 -6 -16 10
-10 23 19 38 16 9 21 16 12 16 -8 1 3 8 25 17 29 11 89 17 215 20 238 5 231 4
300 74 48 49 64 59 92 59 18 -1 42 -8 53 -18z m-6625 -66 c0 -2 -7 -7 -16 -10
-8 -3 -12 -2 -9 4 6 10 25 14 25 6z m1990 -56 c15 -5 -19 -8 -90 -8 -82 1
-102 3 -70 8 62 10 130 10 160 0z m-223 -6 c-3 -3 -12 -4 -19 -1 -8 3 -5 6 6
6 11 1 17 -2 13 -5z m-937 -95 c0 -30 70 -103 415 -434 187 -180 346 -338 354
-353 13 -24 12 -27 -13 -49 -47 -40 -58 -34 -156 80 -25 28 -115 119 -200 202
-459 443 -474 461 -468 552 2 31 7 47 15 46 7 -2 10 4 7 15 -3 9 6 4 20 -13
14 -16 26 -37 26 -46z m-123 29 c-3 -8 -6 -5 -6 6 -1 11 2 17 5 13 3 -3 4 -12
1 -19z m-657 -58 c11 -6 24 -20 30 -31 12 -21 4 -63 -10 -54 -5 3 -11 -3 -15
-14 -6 -19 -48 -33 -71 -24 -23 9 -38 61 -25 89 16 36 58 52 91 34z m5870 -4
c-1 -5 4 -13 12 -17 7 -5 9 -9 3 -9 -5 0 -17 5 -25 10 -13 9 -13 10 0 10 13 0
13 1 0 11 -10 7 -11 9 -2 7 8 -2 13 -7 12 -12z m443 -13 c-7 -2 -19 -2 -25 0
-7 3 -2 5 12 5 14 0 19 -2 13 -5z m52 -13 c-3 -5 -14 -10 -23 -10 -15 0 -15 2
-2 10 20 13 33 13 25 0z m-137 -17 c-15 -2 -42 -2 -60 0 -18 2 -6 4 27 4 33 0
48 -2 33 -4z m-3204 -37 c32 -13 66 -65 66 -101 0 -25 -27 -72 -52 -89 -29
-21 -77 -20 -107 1 -15 10 -21 11 -16 3 5 -9 4 -11 -4 -6 -24 15 -43 69 -38
108 11 80 75 116 151 84z m-3444 -5 c0 -5 -7 -11 -15 -15 -9 -3 -15 0 -15 9 0
8 7 15 15 15 8 0 15 -4 15 -9z m3019 -26 c32 -16 41 -32 42 -78 1 -31 1 -31 9
-7 6 17 8 1 9 -54 1 -77 2 -79 39 -116 45 -45 107 -66 225 -76 96 -7 111 -2
199 70 59 48 108 68 108 45 0 -11 3 -11 10 1 5 8 10 12 10 8 0 -14 2 -23 11
-46 6 -16 4 -30 -7 -47 -9 -14 -12 -25 -7 -25 4 0 16 12 25 28 10 15 18 21 18
14 0 -25 -46 -74 -102 -108 -51 -31 -56 -37 -43 -50 36 -37 108 -138 125 -178
16 -36 18 -49 9 -75 -10 -27 -13 -30 -27 -19 -13 11 -15 10 -10 -10 5 -19 3
-22 -14 -16 -18 5 -18 4 -8 -16 6 -11 10 -25 8 -31 -2 -5 -19 21 -38 58 -45
86 -110 175 -146 200 -40 27 -109 50 -174 58 -55 7 -135 30 -200 58 -45 20
-125 102 -143 147 -19 46 -31 149 -22 198 5 30 12 40 35 49 18 7 32 7 36 2 3
-5 15 -9 27 -9 19 0 18 2 -8 16 -16 8 -31 17 -34 20 -9 9 11 3 38 -11z m-3413
-100 c16 -25 10 -51 -16 -65 -26 -14 -57 -1 -70 31 -11 26 -10 31 11 48 27 22
55 17 75 -14z m829 -119 c97 -41 75 -191 -30 -203 -63 -7 -125 46 -125 107 0
51 54 109 103 110 10 0 33 -7 52 -14z m3278 -17 c4 -3 0 -12 -9 -20 -16 -12
-17 -12 -11 4 3 9 2 17 -4 17 -6 0 -7 5 -4 11 4 6 10 7 14 2 3 -4 10 -10 14
-14z m117 -109 c27 -27 25 -55 -6 -79 -35 -27 -48 -26 -68 4 -22 34 -20 61 6
79 30 21 44 20 68 -4z m-2677 -47 c20 -6 22 -44 6 -94 -15 -44 -12 -42 -43
-28 -28 13 -33 42 -20 108 5 25 11 31 23 25 9 -3 24 -9 34 -11z m2977 -18 c7
-8 17 -12 23 -8 6 4 7 1 3 -6 -5 -8 -3 -12 5 -10 28 3 40 -1 33 -13 -5 -8 -2
-9 9 -5 10 3 17 2 17 -3 0 -6 4 -10 9 -10 4 0 42 -16 82 -35 65 -31 70 -34 38
-31 -38 3 -169 70 -169 86 0 5 -6 7 -12 5 -7 -2 -26 7 -43 20 -16 14 -25 25
-19 25 6 0 17 -7 24 -15z m-2855 -9 c19 -8 83 -64 142 -123 158 -159 168 -171
157 -201 -5 -14 -21 -34 -35 -45 l-27 -19 -34 23 c-19 13 -61 56 -93 94 -75
89 -134 143 -162 151 -26 7 -30 35 -12 97 11 42 15 43 64 23z m3433 -5 c28
-14 276 -101 302 -106 33 -6 77 -19 85 -23 6 -4 15 -7 20 -7 65 -5 104 -30 65
-43 -7 -3 -10 0 -6 7 5 7 0 10 -11 9 -26 -4 -123 22 -123 33 0 5 -13 9 -30 9
-16 0 -30 5 -30 12 0 6 -3 9 -6 5 -3 -3 -49 9 -102 28 -108 37 -234 93 -214
94 7 1 29 -7 50 -18z m-4318 -216 c19 -10 71 -30 115 -45 57 -19 79 -30 76
-41 -2 -8 -6 -26 -9 -41 -7 -46 -23 -51 -99 -32 -97 23 -193 77 -252 139 -53
56 -55 65 -21 111 27 37 43 33 100 -21 31 -29 71 -60 90 -70z m747 102 c4 -6
0 -8 -9 -4 -9 3 -21 0 -27 -6 -8 -8 -11 -6 -11 10 0 16 5 20 20 16 11 -3 23
-10 27 -16z m2894 -20 c40 -26 69 -79 69 -125 0 -41 -32 -104 -62 -124 -29
-18 -95 -15 -137 6 -20 11 -31 13 -31 5 0 -18 -29 9 -47 44 -19 38 -20 104 -2
142 34 72 141 98 210 52z m-4208 -55 c25 -28 38 -71 27 -90 -5 -9 -10 -12 -10
-5 0 7 -12 1 -26 -12 -15 -14 -33 -26 -40 -26 -8 -1 -20 -2 -26 -3 -18 -2 -44
24 -53 53 -5 17 -4 21 5 16 9 -6 9 -3 1 13 -26 49 82 98 122 54z m2980 -12
c79 -12 217 -58 290 -97 39 -21 51 -34 50 -48 -2 -11 -4 -37 -4 -57 -1 -21 -3
-38 -5 -38 -3 0 -44 20 -93 44 -48 25 -117 52 -152 61 -35 9 -86 23 -113 32
-44 14 -47 17 -32 28 16 13 16 14 0 34 -10 11 -19 33 -21 48 -2 18 0 23 5 15
5 -7 39 -17 75 -22z m2611 -4 c89 -19 174 -36 189 -38 15 -2 26 -7 25 -13 -2
-5 -14 -9 -28 -7 -14 1 -36 3 -50 4 -14 2 -28 6 -31 10 -3 5 -24 9 -47 10 -23
1 -42 6 -42 11 0 5 -6 7 -14 4 -8 -3 -35 1 -60 8 -25 8 -46 12 -46 9 0 -3 -6
-2 -12 3 -7 4 -21 6 -32 4 -10 -1 -15 2 -12 7 3 6 0 13 -6 15 -30 12 15 5 166
-27z m-4566 -16 c50 -47 2 -115 -63 -90 -19 7 -25 17 -25 41 0 36 24 69 50 69
9 0 26 -9 38 -20z m2491 -154 c16 -18 4 -64 -19 -76 -30 -16 -48 -12 -66 15
-15 23 -15 27 0 50 19 28 66 34 85 11z m1041 -10 c0 -2 -8 -10 -17 -17 -16
-13 -17 -12 -4 4 13 16 21 21 21 13z m2077 -2 c-3 -3 -12 -4 -19 -1 -8 3 -5 6
6 6 11 1 17 -2 13 -5z m-4453 -39 c45 -45 55 -92 30 -146 -19 -44 -57 -79 -83
-78 -11 0 -9 3 7 9 12 5 22 11 22 12 0 2 -24 3 -52 3 -29 0 -62 4 -73 8 -13 5
-12 4 3 -4 12 -7 22 -16 22 -21 0 -5 -14 1 -31 13 -106 76 -57 239 72 239 42
0 53 -5 83 -35z m2401 25 c-3 -5 -12 -10 -18 -10 -7 0 -6 4 3 10 19 12 23 12
15 0z m145 -10 c-8 -5 -19 -10 -25 -10 -5 0 -3 5 5 10 8 5 20 10 25 10 6 0 3
-5 -5 -10z m-3076 -6 c9 -3 54 -52 101 -109 137 -167 184 -200 450 -316 198
-86 340 -202 406 -333 35 -71 39 -85 39 -156 0 -70 2 -79 20 -85 22 -7 54 -49
63 -83 14 -59 -43 -137 -99 -133 -55 4 -62 6 -58 12 2 4 -3 10 -12 13 -10 4
-13 2 -8 -6 4 -7 3 -8 -5 -4 -45 28 -53 144 -12 177 13 11 17 20 11 24 -5 3
-10 1 -10 -6 0 -7 -3 -10 -6 -6 -3 3 -2 12 2 19 11 17 5 59 -11 78 -7 8 -18
31 -24 50 -6 20 -24 50 -40 67 -16 18 -27 34 -25 37 2 3 1 4 -2 1 -4 -2 -32
15 -63 38 -83 63 -182 120 -213 121 -14 0 -24 4 -21 9 4 6 -20 11 -40 8 -5 -1
-5 4 -1 10 5 9 2 10 -10 6 -11 -5 -15 -3 -10 5 5 7 0 9 -14 6 -13 -4 -20 -1
-19 5 1 6 -2 12 -8 12 -5 1 -31 12 -57 24 -34 15 -46 27 -45 41 2 24 10 25 27
5 10 -12 10 -15 0 -15 -8 0 -11 -3 -8 -6 4 -3 15 -1 25 4 13 7 22 6 30 -3 6
-7 10 -14 8 -16 -2 -2 13 -4 32 -5 19 0 38 -5 41 -10 4 -5 39 -20 77 -33 39
-13 85 -33 103 -43 18 -11 36 -18 39 -15 6 7 -161 88 -250 122 -91 34 -159 67
-192 93 -53 41 -255 245 -261 264 -3 10 -10 15 -16 12 -8 -5 -9 -1 -5 10 4 9
1 25 -5 36 -10 16 -9 22 10 38 12 10 18 22 15 26 -4 4 1 4 11 0 14 -5 17 -4
12 4 -8 13 4 15 28 6z m3028 -37 c-12 -13 -22 -27 -22 -31 0 -4 -6 -14 -14
-22 -10 -10 -16 -10 -18 -2 -3 7 -10 8 -17 4 -11 -7 -11 -10 0 -18 11 -7 9 -8
-6 -5 -11 2 -19 9 -17 17 2 10 0 11 -10 2 -11 -8 -14 -7 -15 8 -1 13 3 17 13
13 8 -3 26 5 39 17 13 12 29 20 37 18 7 -3 19 1 26 9 23 23 26 14 4 -10z m493
-17 c4 -6 -5 -10 -19 -10 -14 0 -26 5 -26 10 0 6 9 10 19 10 11 0 23 -4 26
-10z m-1055 -40 c0 -5 -5 -10 -11 -10 -5 0 -7 5 -4 10 3 6 8 10 11 10 2 0 4
-4 4 -10z m37 -6 c-3 -3 -12 -4 -19 -1 -8 3 -5 6 6 6 11 1 17 -2 13 -5z m242
-10 c34 -24 52 -75 41 -114 -11 -39 -37 -70 -59 -70 -11 0 -12 3 -4 8 7 4 -8
7 -33 7 -38 0 -42 -2 -27 -12 24 -18 2 -16 -23 2 -12 8 -29 31 -39 52 -10 21
-20 32 -22 26 -7 -21 -23 -15 -23 9 0 17 -3 19 -12 10 -14 -14 -32 -16 -24 -3
4 5 0 12 -6 14 -8 3 -6 6 5 6 15 1 16 3 5 15 -14 14 -42 10 -32 -5 3 -5 -1 -9
-8 -9 -8 0 -14 8 -14 19 0 11 6 17 16 14 8 -2 24 3 35 12 l20 15 -20 -6 c-16
-5 -17 -4 -5 5 9 6 32 8 57 5 23 -3 49 -1 60 5 27 16 86 13 112 -5z m-2795
-40 c3 -8 2 -12 -4 -9 -6 3 -10 10 -10 16 0 14 7 11 14 -7z m4051 -44 c40 0
50 -11 66 -73 13 -54 51 -97 112 -129 36 -18 62 -21 235 -24 173 -3 200 -1
250 16 31 11 67 20 80 20 113 0 176 -158 92 -233 -33 -30 -53 -30 -29 0 13 15
12 15 -12 0 -19 -13 -40 -16 -75 -13 -27 2 -50 5 -51 6 -2 1 -7 3 -12 4 -16 2
-23 14 -13 20 5 3 15 -1 22 -9 7 -8 16 -15 21 -15 4 0 -5 15 -22 32 -16 18
-29 36 -29 39 0 4 -100 9 -222 11 -220 3 -224 3 -283 31 -106 49 -172 132
-185 232 -7 48 9 140 18 103 2 -13 13 -18 37 -18z m-4014 -9 c7 -16 16 -28 20
-25 4 2 19 -14 34 -36 15 -22 31 -40 35 -40 4 0 10 -9 13 -20 4 -14 10 -18 22
-14 14 6 16 3 10 -17 -7 -21 -6 -22 9 -10 14 12 16 12 9 -4 -5 -14 -3 -17 10
-12 16 6 22 -3 18 -26 -1 -4 4 -7 11 -5 7 2 13 0 13 -3 0 -3 7 -14 15 -25 14
-18 14 -18 -6 -1 -11 9 -25 17 -30 17 -5 0 -4 -4 1 -8 6 -4 19 -18 30 -32 l20
-25 -25 20 c-54 42 -99 89 -94 97 7 11 -26 43 -45 43 -9 0 -15 8 -15 18 2 14
-1 15 -12 6 -12 -10 -13 -9 -8 5 3 9 1 22 -5 30 -6 7 -8 16 -4 20 4 4 0 4 -9
1 -14 -6 -29 15 -33 45 0 3 -4 11 -8 18 -5 6 -4 12 2 12 5 0 15 -13 22 -29z
m466 -27 c-3 -3 -12 -4 -19 -1 -8 3 -5 6 6 6 11 1 17 -2 13 -5z m1751 -8 c15
-8 53 -44 84 -80 39 -43 77 -74 115 -93 l58 -28 370 -5 370 -5 57 -27 c66 -31
135 -96 163 -153 10 -22 21 -69 23 -105 2 -36 9 -69 16 -75 60 -51 77 -146 34
-200 -43 -55 -128 -70 -186 -35 -81 50 -80 181 1 235 43 28 28 101 -36 173
-27 29 -46 29 -21 0 12 -14 13 -18 3 -10 -9 6 -19 9 -22 6 -3 -3 -23 3 -44 14
-33 18 -65 22 -233 28 -107 4 -240 8 -295 9 -146 2 -173 8 -70 15 l90 6 -96 2
c-192 4 -315 64 -431 210 -16 19 -28 32 -28 28 0 -15 31 -66 40 -66 6 0 9 -6
8 -12 -2 -7 3 -12 10 -10 8 1 11 -2 7 -8 -3 -5 1 -10 10 -10 11 0 14 -7 11
-25 -3 -15 -1 -23 5 -20 5 4 6 12 2 18 -3 7 3 4 15 -6 11 -10 19 -27 17 -38
-2 -10 0 -21 5 -24 5 -3 7 3 5 13 -3 17 0 18 19 9 27 -13 33 -48 7 -44 -29 5
-72 37 -65 49 4 6 3 8 -3 5 -13 -8 -47 28 -39 41 3 5 -2 16 -12 23 -15 13 -16
12 -3 -3 22 -29 2 -21 -24 10 -13 15 -25 33 -25 40 0 7 -4 11 -9 8 -11 -7 -31
38 -31 70 0 31 50 84 80 84 11 0 33 -6 48 -14z m-2964 -28 c29 -41 13 -82 -35
-93 -19 -5 -34 0 -57 19 -30 26 -30 26 -25 4 3 -13 2 -20 -2 -16 -14 13 -7 69
11 89 25 28 88 26 108 -3z m470 -3 c11 -8 16 -15 12 -15 -4 0 0 -7 8 -16 26
-25 21 -97 -9 -132 -43 -52 -100 -50 -150 4 -20 21 -25 38 -25 76 0 68 30 98
97 98 26 0 57 -7 67 -15z m363 -72 c-4 -3 -1 -13 6 -22 11 -14 10 -14 -5 -2
-16 12 -16 31 -1 31 4 0 3 -3 0 -7z m3518 -128 c0 -27 -4 -30 -32 -33 -29 -3
-33 0 -33 20 0 30 19 50 45 46 15 -2 20 -11 20 -33z m-2332 -38 c65 -49 86
-141 47 -204 -64 -106 -216 -97 -275 16 -22 44 -16 117 13 158 48 67 148 81
215 30z m-983 -3 c0 -2 -9 0 -20 6 -11 6 -20 13 -20 16 0 2 9 0 20 -6 11 -6
20 -13 20 -16z m1753 8 c9 -9 14 -26 12 -37 -2 -11 -4 -25 -4 -31 -2 -19 -44
-32 -68 -21 -30 14 -36 73 -9 93 27 19 50 18 69 -4z m307 -71 c0 -5 12 -14 28
-19 15 -6 21 -11 14 -11 -14 -1 -72 27 -72 34 0 3 7 5 15 5 8 0 15 -4 15 -9z
m105 -31 c-11 -5 -27 -9 -35 -9 -9 0 -8 4 5 9 11 5 27 9 35 9 9 0 8 -4 -5 -9z
m343 -17 c-10 -2 -28 -2 -40 0 -13 2 -5 4 17 4 22 1 32 -1 23 -4z m-221 -19
c-3 -3 -12 -4 -19 -1 -8 3 -5 6 6 6 11 1 17 -2 13 -5z m121 -1 c-10 -2 -26 -2
-35 0 -10 3 -2 5 17 5 19 0 27 -2 18 -5z m275 0 c-18 -2 -48 -2 -65 0 -18 2
-4 4 32 4 36 0 50 -2 33 -4z m120 0 c-7 -2 -19 -2 -25 0 -7 3 -2 5 12 5 14 0
19 -2 13 -5z m1066 -38 c23 -22 24 -78 2 -102 -11 -11 -18 -23 -15 -25 2 -3
-8 -4 -23 -3 -45 3 -49 5 -33 15 9 6 10 10 3 10 -6 0 -15 -4 -18 -10 -9 -15
-25 -12 -25 6 0 8 -4 13 -9 9 -6 -3 -13 10 -17 30 -5 27 -2 41 12 57 36 39 90
45 123 13z m-844 -16 c9 -17 15 -33 13 -35 -3 -2 -12 12 -21 31 -21 43 -13 47
8 4z m-3020 -9 c53 -49 37 -145 -28 -176 -45 -21 -80 -13 -124 31 -26 26 -33
41 -33 73 0 33 6 45 37 72 32 28 41 32 80 27 27 -3 54 -14 68 -27z m1623 -26
c42 -29 20 -104 -31 -104 -26 0 -52 36 -48 65 2 19 35 55 50 55 4 0 17 -7 29
-16z m1992 -51 c15 -19 19 -35 15 -53 -8 -32 -6 -30 -48 -33 -22 -2 -33 1 -30
7 4 5 -1 7 -11 3 -10 -4 -15 -3 -11 3 3 5 -6 12 -20 16 -32 8 -32 24 0 58 33
35 76 35 105 -1z m-1597 5 c16 -9 105 -14 303 -18 l281 -5 36 -28 c70 -53 89
-89 91 -167 0 -39 -3 -70 -7 -70 -4 0 8 -14 27 -31 56 -49 61 -119 12 -172
-48 -51 -145 -26 -179 46 -24 49 -21 69 12 111 33 41 32 56 -8 134 -35 68 -50
72 -298 72 l-218 0 -34 -35 c-38 -40 -70 -41 -120 -6 -17 12 -35 20 -40 17
-16 -10 -23 52 -11 89 21 65 96 95 153 63z m-1714 -153 c20 -19 22 -77 4 -98
-11 -12 -29 -17 -58 -15 -47 1 -64 18 -59 58 1 14 3 30 3 37 1 18 53 43 76 36
11 -3 26 -11 34 -18z m278 -57 c-3 -7 -5 -2 -5 12 0 14 2 19 5 13 2 -7 2 -19
0 -25z"/>
<path d="M4950 6759 c0 -6 16 -30 36 -54 33 -41 104 -185 104 -212 0 -7 5 -13
10 -13 30 0 -42 199 -89 245 -45 45 -61 54 -61 34z"/>
<path d="M6285 6180 c10 -11 20 -20 23 -20 3 0 -3 9 -13 20 -10 11 -20 20 -23
20 -3 0 3 -9 13 -20z"/>
<path d="M6359 6101 c11 -15 17 -32 13 -36 -4 -5 -1 -5 6 -1 9 6 7 14 -8 37
-12 16 -24 29 -26 29 -3 0 4 -13 15 -29z"/>
<path d="M6076 6093 c-6 -14 -5 -15 5 -6 7 7 10 15 7 18 -3 3 -9 -2 -12 -12z"/>
<path d="M6106 6080 c4 -8 14 -23 22 -32 13 -16 13 -18 -1 -18 -8 0 -17 6 -19
12 -3 9 -10 8 -23 -5 -14 -14 -15 -21 -6 -26 22 -14 41 -59 28 -65 -7 -3 -1
-3 12 0 19 5 23 3 18 -10 -4 -9 0 -19 9 -24 9 -5 16 -12 15 -15 0 -15 65 -139
119 -226 33 -52 66 -121 76 -157 18 -61 20 -64 49 -64 55 0 58 8 29 101 -62
195 -156 356 -292 499 -24 25 -41 38 -36 30z m4 -60 c0 -5 -4 -10 -10 -10 -5
0 -10 5 -10 10 0 6 5 10 10 10 6 0 10 -4 10 -10z"/>
<path d="M8250 5910 c-13 -8 -13 -10 2 -10 9 0 20 5 23 10 8 13 -5 13 -25 0z"/>
<path d="M8131 5753 c-9 -16 -12 -16 -21 -3 -5 8 -10 10 -10 4 0 -6 6 -17 13
-23 11 -8 16 -5 25 14 13 29 8 34 -7 8z"/>
<path d="M8751 5596 c-7 -8 -11 -27 -9 -43 2 -22 9 -29 31 -31 50 -6 75 38 41
72 -19 20 -48 20 -63 2z"/>
<path d="M8765 5450 c3 -5 11 -10 16 -10 6 0 7 5 4 10 -3 6 -11 10 -16 10 -6
0 -7 -4 -4 -10z"/>
<path d="M8075 5151 c-3 -5 -2 -12 3 -15 5 -3 9 1 9 9 0 17 -3 19 -12 6z"/>
<path d="M8045 5100 c-17 -6 -17 -7 -1 -13 28 -11 46 -8 46 6 0 15 -16 17 -45
7z"/>
<path d="M5760 4729 c0 -13 47 -216 66 -285 13 -49 21 -58 136 -150 252 -205
371 -297 346 -268 -9 10 -17 21 -17 24 0 3 -2 12 -5 20 -86 247 -135 329 -286
480 -106 106 -240 206 -240 179z"/>
<path d="M6423 4005 c0 -27 2 -38 4 -22 2 15 2 37 0 50 -2 12 -4 0 -4 -28z"/>
<path d="M7782 3350 c0 -14 2 -19 5 -12 2 6 2 18 0 25 -3 6 -5 1 -5 -13z"/>
<path d="M7690 3035 c0 -5 5 -17 10 -25 5 -8 10 -10 10 -5 0 6 -5 17 -10 25
-5 8 -10 11 -10 5z"/>
<path d="M7751 3000 c-12 -22 -20 -40 -18 -40 7 0 48 72 44 76 -2 2 -14 -14
-26 -36z"/>
<path d="M5641 2899 c11 -11 23 -18 27 -15 3 4 -3 13 -14 21 -28 22 -37 18
-13 -6z"/>
<path d="M5682 2881 c6 -21 21 -23 43 -6 19 15 19 16 -4 5 -19 -10 -26 -9 -33
1 -8 12 -9 11 -6 0z"/>
<path d="M5720 2840 c0 -5 7 -6 17 -3 12 5 14 3 8 -7 -5 -9 -4 -11 4 -6 6 4 9
12 6 17 -8 12 -35 12 -35 -1z"/>
<path d="M5812 2801 c-11 -7 -10 -9 3 -14 9 -4 14 -3 10 2 -3 5 1 12 7 14 7 3
9 6 3 6 -5 0 -16 -3 -23 -8z"/>
<path d="M5954 2703 c2 -9 8 -18 15 -19 6 -1 7 0 1 3 -5 2 -8 9 -5 13 3 5 1
11 -4 14 -5 4 -8 -2 -7 -11z"/>
<path d="M6123 2617 c0 -7 9 -13 19 -13 10 0 18 1 18 3 0 1 -8 7 -18 12 -13 7
-19 6 -19 -2z"/>
<path d="M6330 2520 c0 -5 5 -10 11 -10 5 0 7 5 4 10 -3 6 -8 10 -11 10 -2 0
-4 -4 -4 -10z"/>
<path d="M6545 2440 c3 -5 8 -10 11 -10 2 0 4 5 4 10 0 6 -5 10 -11 10 -5 0
-7 -4 -4 -10z"/>
<path d="M6517 2429 c7 -7 15 -10 18 -7 3 3 -2 9 -12 12 -14 6 -15 5 -6 -5z"/>
<path d="M6631 2384 c0 -11 3 -14 6 -6 3 7 2 16 -1 19 -3 4 -6 -2 -5 -13z"/>
<path d="M5960 8395 c0 -5 5 -17 10 -25 5 -8 10 -10 10 -5 0 6 -5 17 -10 25
-5 8 -10 11 -10 5z"/>
<path d="M5670 8603 c-64 -24 -80 -95 -31 -144 56 -56 141 -23 141 55 0 58
-62 108 -110 89z m58 -45 c7 -7 12 -24 12 -39 0 -57 -63 -64 -74 -7 -9 44 33
75 62 46z"/>
<path d="M1912 8323 c-6 -2 -10 -8 -7 -13 3 -5 -4 -11 -15 -15 -20 -6 -25 -21
-21 -59 5 -53 77 -75 119 -36 23 22 30 64 12 75 -6 4 -8 10 -5 15 3 4 -6 11
-20 14 -14 4 -25 11 -25 16 0 11 -16 12 -38 3z"/>
<path d="M5515 8129 c-4 -6 -5 -12 -2 -15 2 -3 7 2 10 11 7 17 1 20 -8 4z"/>
<path d="M5501 8084 c0 -11 3 -14 6 -6 3 7 2 16 -1 19 -3 4 -6 -2 -5 -13z"/>
<path d="M3338 7693 c7 -3 16 -2 19 1 4 3 -2 6 -13 5 -11 0 -14 -3 -6 -6z"/>
<path d="M1530 7676 c0 -2 7 -9 15 -16 9 -7 15 -8 15 -2 0 5 -7 12 -15 16 -8
3 -15 4 -15 2z"/>
<path d="M3516 7588 c4 -7 18 -27 30 -43 36 -48 74 -137 74 -173 0 -48 24 -36
28 14 4 46 -14 114 -30 114 -6 0 -8 3 -5 7 4 3 2 12 -4 19 -8 10 -5 11 20 1
20 -7 26 -14 18 -19 -9 -6 -9 -8 0 -8 28 0 20 19 -15 38 -20 10 -54 29 -75 41
-43 24 -51 26 -41 9z"/>
<path d="M3663 7495 c-21 -11 -21 -11 -2 -23 26 -16 34 -15 19 3 -10 12 -10
15 2 15 8 0 19 -5 25 -11 6 -6 17 -9 25 -7 8 3 1 11 -17 20 -23 11 -35 12 -52
3z"/>
<path d="M3760 7431 c0 -7 -5 -9 -12 -5 -7 4 7 -15 32 -43 72 -80 124 -145
149 -186 29 -48 37 -41 22 19 -24 95 -96 199 -129 187 -11 -5 -13 -3 -7 7 5 8
3 11 -6 8 -8 -3 -22 1 -31 10 -13 10 -18 11 -18 3z m119 -93 c13 -21 13 -22
-2 -9 -22 18 -22 3 1 -23 17 -21 17 -21 -5 -3 -24 21 -37 57 -19 57 6 0 17
-10 25 -22z"/>
<path d="M2821 6921 c-16 -29 -14 -37 15 -50 32 -14 31 -15 36 29 2 30 0 35
-19 38 -14 2 -26 -4 -32 -17z"/>
<path d="M2926 6815 c14 -19 30 -35 35 -35 4 0 11 -10 14 -22 11 -39 69 -128
82 -128 6 0 24 -11 39 -25 31 -29 43 -33 23 -8 -8 9 -9 14 -2 10 12 -7 53 37
53 57 0 6 -8 -1 -18 -16 -10 -18 -25 -28 -40 -28 -15 0 -26 9 -33 28 -6 15
-15 35 -20 44 -5 10 -5 20 1 23 6 4 10 3 9 -2 -3 -20 2 -25 16 -13 9 7 27 10
45 7 23 -5 28 -3 23 8 -3 8 0 15 7 15 6 0 8 -4 5 -10 -3 -5 -2 -10 4 -10 5 0
12 4 15 9 10 15 -24 22 -47 10 -21 -11 -21 -11 1 14 27 29 16 42 -30 39 -20
-2 -28 2 -28 13 0 9 5 13 10 10 6 -3 10 -4 10 -1 0 3 -9 10 -20 16 -17 9 -19
8 -13 -7 6 -15 4 -16 -9 -5 -10 8 -18 9 -22 3 -4 -6 -20 -9 -35 -8 -16 1 -28
4 -26 7 8 12 -22 36 -48 38 l-28 2 27 -35z m209 -44 c3 -5 2 -12 -3 -15 -5 -3
-9 1 -9 9 0 17 3 19 12 6z"/>
<path d="M3190 6715 c-7 -13 -17 -22 -21 -19 -4 2 -10 0 -13 -5 -6 -10 24 -23
56 -25 78 -5 246 -214 263 -329 7 -45 15 -53 118 -112 l47 -27 -6 58 c-9 94
-55 177 -149 269 -64 64 -181 153 -270 207 -7 4 -17 -2 -25 -17z m65 -43 c-6
-7 -35 18 -35 31 0 5 9 2 20 -8 11 -10 18 -20 15 -23z"/>
<path d="M1880 6616 c0 -32 50 -96 74 -96 31 1 63 27 49 41 -16 16 -73 21 -73
7 0 -16 -15 0 -34 37 -12 23 -16 25 -16 11z"/>
<path d="M3201 6611 c-12 -12 -21 -25 -21 -31 0 -5 12 2 26 17 14 14 23 27 20
30 -2 3 -14 -5 -25 -16z"/>
<path d="M2980 6399 c20 -17 43 -28 52 -25 18 4 42 -16 32 -27 -3 -3 23 -24
58 -48 35 -23 65 -45 68 -49 20 -24 77 -58 89 -51 10 7 9 9 -3 14 -9 4 -16 13
-16 21 0 14 -27 31 -44 27 -4 -1 -15 6 -25 16 -9 10 -28 24 -43 32 -16 8 -26
16 -23 19 9 9 -150 103 -172 102 -4 -1 8 -14 27 -31z"/>
<path d="M3724 6323 c-6 -32 -8 -35 -16 -18 -5 13 -6 7 -2 -19 3 -21 9 -46 14
-55 8 -15 24 -70 23 -81 0 -3 8 -14 19 -25 19 -20 19 -19 13 70 -4 50 -9 97
-12 105 -3 8 -6 24 -7 34 -2 36 -25 28 -32 -11z"/>
<path d="M3420 6201 c0 -6 5 -11 10 -11 6 0 18 -8 28 -17 20 -20 76 -53 88
-53 4 0 -11 13 -32 28 -72 52 -94 65 -94 53z"/>
<path d="M3605 5760 c-3 -6 1 -7 9 -4 18 7 21 14 7 14 -6 0 -13 -4 -16 -10z"/>
<path d="M5536 7823 c-6 -14 -5 -15 5 -6 7 7 10 15 7 18 -3 3 -9 -2 -12 -12z"/>
<path d="M5500 7759 c-7 -11 -10 -23 -7 -25 2 -2 9 7 15 21 14 30 7 33 -8 4z"/>
<path d="M5027 7416 c-19 -13 -37 -23 -39 -21 -2 2 -4 -12 -6 -31 -3 -48 23
-84 60 -84 30 0 78 38 78 62 0 26 -20 82 -32 90 -19 11 -22 11 -61 -16z m68
-45 c7 -22 -12 -58 -34 -66 -32 -13 -56 46 -29 73 19 19 56 14 63 -7z"/>
<path d="M5460 7279 c-30 -46 -66 -95 -80 -108 l-25 -24 30 16 c46 23 142 161
133 189 -2 6 -28 -27 -58 -73z"/>
<path d="M5417 7321 c-4 -17 -3 -21 5 -13 5 5 8 16 6 23 -3 8 -7 3 -11 -10z"/>
<path d="M5297 7123 c-4 -3 -24 -10 -44 -14 l-38 -8 44 4 c24 2 48 8 54 14 7
7 7 11 1 11 -6 0 -14 -3 -17 -7z"/>
<path d="M913 6638 c-32 -36 -34 -54 -9 -77 28 -27 66 -27 100 0 31 24 33 52
6 79 -27 27 -71 26 -97 -2z"/>
<path d="M4709 6973 c-13 -16 -12 -17 4 -4 9 7 17 15 17 17 0 8 -8 3 -21 -13z"/>
<path d="M4941 6965 c-24 -41 -25 -45 -11 -45 10 0 43 70 36 77 -2 2 -13 -12
-25 -32z"/>
<path d="M4620 6630 c0 -32 11 -38 29 -16 14 16 4 46 -15 46 -9 0 -14 -11 -14
-30z"/>
<path d="M4428 6158 c5 -5 16 -8 23 -6 8 3 3 7 -10 11 -17 4 -21 3 -13 -5z"/>
<path d="M4589 6433 c-13 -16 -12 -17 4 -4 16 13 21 21 13 21 -2 0 -10 -8 -17
-17z"/>
<path d="M4360 6400 c0 -5 5 -10 11 -10 5 0 7 5 4 10 -3 6 -8 10 -11 10 -2 0
-4 -4 -4 -10z"/>
<path d="M8642 6398 c-7 -7 -12 -21 -12 -33 0 -12 5 -26 12 -33 27 -27 78 -7
78 29 0 39 -52 63 -78 37z"/>
<path d="M2268 6313 c7 -3 16 -2 19 1 4 3 -2 6 -13 5 -11 0 -14 -3 -6 -6z"/>
<path d="M2740 6100 c0 -5 5 -10 11 -10 5 0 7 5 4 10 -3 6 -8 10 -11 10 -2 0
-4 -4 -4 -10z"/>
<path d="M6634 6113 c2 -9 11 -17 20 -19 17 -2 17 -2 0 17 -21 23 -23 23 -20
2z"/>
<path d="M620 6148 c-35 -38 -21 -100 26 -118 29 -11 59 1 86 34 38 46 5 106
-57 106 -22 0 -41 -8 -55 -22z"/>
<path d="M598 5978 c22 -27 68 -41 99 -30 26 10 25 10 -17 11 -25 1 -57 9 -70
18 -21 14 -23 15 -12 1z"/>
<path d="M5245 6090 c3 -5 14 -10 23 -10 15 0 15 2 2 10 -20 13 -33 13 -25 0z"/>
<path d="M1426 5472 c-3 -5 1 -9 9 -9 8 0 12 4 9 9 -3 4 -7 8 -9 8 -2 0 -6 -4
-9 -8z"/>
<path d="M810 5212 c-42 -20 -60 -53 -60 -107 0 -57 29 -99 84 -120 38 -15 51
-16 75 -5 47 19 73 54 79 106 7 63 -17 107 -69 128 -50 20 -66 20 -109 -2z"/>
<path d="M4230 6000 c0 -5 -7 -10 -15 -10 -10 0 -15 -11 -16 -32 -1 -24 -3
-27 -6 -10 -2 12 -8 20 -13 17 -16 -10 0 -33 36 -55 20 -11 32 -16 29 -10 -3
5 1 10 10 10 20 0 35 40 24 62 -12 22 -49 43 -49 28z m20 -44 c0 -3 -4 -8 -10
-11 -5 -3 -10 -1 -10 4 0 6 5 11 10 11 6 0 10 -2 10 -4z"/>
<path d="M4276 5909 c-11 -11 -15 -19 -9 -19 12 0 38 28 32 34 -2 2 -13 -5
-23 -15z"/>
<path d="M3560 5565 c-18 -22 -2 -49 31 -53 13 -2 20 1 14 5 -5 4 -12 17 -13
28 -5 30 -17 38 -32 20z"/>
<path d="M4493 5864 c0 -8 2 -12 5 -9 3 2 13 0 23 -6 27 -14 24 -4 -4 14 -20
13 -24 13 -24 1z"/>
<path d="M5030 5456 c0 -2 8 -10 18 -17 15 -13 16 -12 3 4 -13 16 -21 21 -21
13z"/>
<path d="M542 5637 c-29 -30 -28 -62 3 -92 33 -34 77 -33 104 1 27 35 27 65
-2 92 -31 29 -77 29 -105 -1z"/>
<path d="M2663 4520 c0 -25 2 -35 4 -22 2 12 2 32 0 45 -2 12 -4 2 -4 -23z"/>
<path d="M2662 4430 c0 -19 2 -27 5 -17 2 9 2 25 0 35 -3 9 -5 1 -5 -18z"/>
<path d="M3276 3764 c-16 -42 5 -74 48 -74 21 0 39 37 32 66 -5 19 -13 24 -40
24 -22 0 -36 -6 -40 -16z"/>
<path d="M3780 4910 c-11 -26 -10 -33 5 -50 30 -33 75 -20 75 21 0 16 -44 59
-60 59 -4 0 -13 -14 -20 -30z"/>
<path d="M3846 4714 c-24 -23 -20 -61 8 -80 56 -36 118 42 64 80 -28 20 -52
20 -72 0z"/>
<path d="M1704 4075 c0 -82 2 -115 3 -72 2 43 2 110 0 150 -1 40 -3 5 -3 -78z"/>
<path d="M1608 3703 c-9 -2 -21 -18 -27 -34 -28 -82 67 -135 123 -69 21 26 24
35 15 57 -6 15 -15 33 -21 40 -10 12 -55 16 -90 6z"/>
<path d="M8886 4654 c-20 -19 -20 -38 -1 -54 36 -30 92 22 58 55 -19 19 -38
19 -57 -1z"/>
<path d="M8964 4558 l-19 -23 23 19 c12 11 22 21 22 23 0 8 -8 2 -26 -19z"/>
<path d="M819 4509 c-25 -25 -25 -65 1 -79 28 -15 74 8 78 38 7 46 -46 74 -79
41z"/>
<path d="M1385 3085 c-29 -28 -30 -36 -10 -75 17 -32 44 -45 78 -34 61 18 77
77 31 113 -35 28 -69 26 -99 -4z"/>
<path d="M3455 4030 c3 -5 8 -10 11 -10 2 0 4 5 4 10 0 6 -5 10 -11 10 -5 0
-7 -4 -4 -10z"/>
<path d="M3528 4445 c-8 -18 -9 -35 -2 -53 19 -55 104 -32 104 28 0 35 -17 50
-57 50 -26 0 -36 -6 -45 -25z"/>
<path d="M9047 4282 c-22 -24 -22 -66 -1 -87 24 -24 73 -15 97 18 l21 27 -21
28 c-25 34 -72 41 -96 14z"/>
<path d="M8970 4191 c0 -6 4 -13 10 -16 6 -3 7 1 4 9 -7 18 -14 21 -14 7z"/>
<path d="M9013 4136 c15 -14 36 -26 45 -25 14 0 14 2 2 6 -8 3 -28 15 -45 25
l-30 20 28 -26z"/>
<path d="M4360 3930 c-6 -11 -8 -20 -6 -20 3 0 10 9 16 20 6 11 8 20 6 20 -3
0 -10 -9 -16 -20z"/>
<path d="M4435 3890 c3 -5 11 -10 16 -10 6 0 7 5 4 10 -3 6 -11 10 -16 10 -6
0 -7 -4 -4 -10z"/>
<path d="M4408 3873 c7 -3 16 -2 19 1 4 3 -2 6 -13 5 -11 0 -14 -3 -6 -6z"/>
<path d="M4471 3854 c0 -11 3 -14 6 -6 3 7 2 16 -1 19 -3 4 -6 -2 -5 -13z"/>
<path d="M4525 3800 c3 -5 11 -10 16 -10 6 0 7 5 4 10 -3 6 -11 10 -16 10 -6
0 -7 -4 -4 -10z"/>
<path d="M4531 3747 c2 -1 13 -9 24 -17 19 -14 19 -14 6 3 -7 9 -18 17 -24 17
-6 0 -8 -1 -6 -3z"/>
<path d="M4665 3660 c-3 -6 1 -7 9 -4 18 7 21 14 7 14 -6 0 -13 -4 -16 -10z"/>
<path d="M4689 3646 c-14 -9 -14 -13 -3 -24 19 -18 29 -15 13 5 -12 15 -12 16
4 10 9 -3 17 -2 17 3 0 16 -15 19 -31 6z"/>
<path d="M4760 3560 c0 -5 5 -10 11 -10 5 0 7 5 4 10 -3 6 -8 10 -11 10 -2 0
-4 -4 -4 -10z"/>
<path d="M4837 3513 c-4 -3 0 -15 10 -25 17 -19 39 -25 28 -8 -3 6 0 10 8 10
8 0 17 -9 20 -20 5 -18 37 -29 37 -12 0 12 -65 53 -68 42 -2 -5 -8 -10 -14
-10 -6 0 -8 7 -4 15 5 15 -5 20 -17 8z"/>
<path d="M4955 3429 c-4 -6 -14 -8 -24 -4 -13 5 -14 4 -3 -6 10 -11 15 -10 29
4 10 9 14 17 11 17 -4 0 -10 -5 -13 -11z"/>
<path d="M4960 3400 c0 -10 31 -18 48 -13 22 8 13 18 -18 19 -17 1 -30 -2 -30
-6z"/>
<path d="M5024 3352 c20 -23 32 -30 20 -11 -4 8 1 9 17 5 21 -6 22 -6 6 4 -10
7 -21 9 -24 6 -4 -3 -13 0 -22 6 -10 8 -9 4 3 -10z"/>
<path d="M5096 3329 c-11 -10 -17 -21 -14 -24 7 -7 38 23 38 36 0 12 -2 11
-24 -12z"/>
<path d="M5183 3273 c8 -13 -17 -35 -29 -25 -4 4 -2 -1 5 -10 7 -10 16 -18 19
-18 3 0 2 3 -1 7 -4 3 0 14 9 24 12 13 12 19 3 25 -7 4 -10 3 -6 -3z"/>
<path d="M1319 3979 c-26 -26 -24 -55 5 -74 20 -13 28 -14 45 -4 11 7 22 22
25 33 12 47 -41 79 -75 45z"/>
<path d="M4316 3134 c-21 -21 -20 -47 2 -67 24 -22 35 -21 55 1 23 25 21 59
-2 72 -27 14 -37 13 -55 -6z"/>
<path d="M4103 3053 c15 -2 39 -2 55 0 15 2 2 4 -28 4 -30 0 -43 -2 -27 -4z"/>
<path d="M3333 3400 c-12 -5 -29 -23 -38 -41 -16 -30 -16 -33 3 -58 25 -35 67
-39 98 -10 13 12 24 29 24 36 0 8 5 11 10 8 6 -3 10 1 10 9 0 15 -37 56 -51
56 -4 0 -13 2 -21 4 -7 3 -23 1 -35 -4z"/>
<path d="M4690 3338 c-34 -36 -20 -77 31 -93 27 -9 73 24 77 54 8 54 -68 81
-108 39z"/>
<path d="M4699 899 c-25 -25 -24 -44 2 -62 23 -16 52 -12 70 9 9 11 9 20 -1
38 -17 33 -47 39 -71 15z"/>
<path d="M8785 2994 c-9 -15 -12 -23 -6 -20 11 7 35 46 28 46 -3 0 -12 -12
-22 -26z"/>
<path d="M5210 2730 c-35 -35 -20 -80 26 -80 21 0 54 33 54 52 0 11 -38 48
-50 48 -5 0 -19 -9 -30 -20z"/>
<path d="M2200 2480 c-26 -26 -25 -46 4 -65 50 -33 103 27 60 69 -21 21 -40
20 -64 -4z"/>
<path d="M5745 2125 c-31 -30 -32 -55 -2 -83 43 -40 99 -23 113 35 6 21 1 31
-20 50 -35 30 -61 29 -91 -2z"/>
<path d="M3717 1862 c-20 -22 -22 -63 -5 -80 17 -17 74 -15 92 4 35 35 6 94
-46 94 -14 0 -32 -8 -41 -18z"/>
<path d="M4160 1091 c0 -6 4 -13 10 -16 6 -3 7 1 4 9 -7 18 -14 21 -14 7z"/>
<path d="M4186 1025 c4 -8 10 -15 15 -15 4 0 6 7 3 15 -4 8 -10 15 -15 15 -4
0 -6 -7 -3 -15z"/>
<path d="M4210 985 c0 -8 4 -15 10 -15 5 0 7 7 4 15 -4 8 -8 15 -10 15 -2 0
-4 -7 -4 -15z"/>
<path d="M4250 850 c-34 -34 -17 -80 29 -80 47 0 72 49 41 80 -25 25 -45 25
-70 0z"/>
<path d="M5972 1758 c-26 -26 -6 -68 33 -68 41 0 58 36 29 64 -18 19 -45 21
-62 4z"/>
<path d="M8015 1440 c-15 -16 -17 -26 -9 -48 18 -52 114 -37 114 18 0 47 -71
67 -105 30z"/>
<path d="M3330 1666 c0 -2 8 -10 18 -17 15 -13 16 -12 3 4 -13 16 -21 21 -21
13z"/>
<path d="M3439 1526 c27 -28 43 -34 35 -12 -3 7 -17 19 -32 26 l-27 12 24 -26z"/>
<path d="M5406 1612 c-3 -5 1 -9 9 -9 8 0 12 4 9 9 -3 4 -7 8 -9 8 -2 0 -6 -4
-9 -8z"/>
<path d="M5406 1575 c4 -8 11 -15 16 -15 6 0 5 6 -2 15 -7 8 -14 15 -16 15 -2
0 -1 -7 2 -15z"/>
<path d="M5440 1526 c0 -2 8 -10 18 -17 15 -13 16 -12 3 4 -13 16 -21 21 -21
13z"/>
<path d="M5583 1397 c0 -8 6 -14 14 -14 9 0 10 4 2 14 -6 7 -12 13 -14 13 -1
0 -2 -6 -2 -13z"/>
<path d="M6018 1353 c12 -2 30 -2 40 0 9 3 -1 5 -23 4 -22 0 -30 -2 -17 -4z"/>
<path d="M6238 1353 c45 -2 119 -2 165 0 45 1 8 3 -83 3 -91 0 -128 -2 -82 -3z"/>
<path d="M6510 1331 c17 -14 20 -21 10 -21 -13 0 -13 -1 0 -10 21 -14 27 -12
27 6 0 8 -14 22 -31 30 l-31 15 25 -20z"/>
<path d="M6173 1333 c9 -2 23 -2 30 0 6 3 -1 5 -18 5 -16 0 -22 -2 -12 -5z"/>
<path d="M6656 1039 c-34 -27 -32 -64 5 -92 32 -23 62 -16 85 19 21 31 12 67
-21 82 -34 16 -38 15 -69 -9z"/>
<path d="M6628 888 c5 -5 16 -8 23 -6 8 3 3 7 -10 11 -17 4 -21 3 -13 -5z"/>
<path d="M2926 1599 c-33 -26 -33 -52 0 -78 21 -17 30 -19 48 -9 41 22 48 56
16 88 -25 25 -31 25 -64 -1z"/>
<path d="M4453 1360 c-25 -10 -43 -39 -43 -70 0 -29 44 -70 75 -70 33 0 75 41
75 73 0 13 -9 36 -21 51 -21 27 -47 32 -86 16z"/>
<path d="M3480 1171 c-5 -11 -10 -26 -10 -35 0 -14 36 -46 52 -46 13 0 48 39
48 54 0 41 -71 62 -90 27z"/>
<path d="M5536 1084 c-22 -21 -20 -51 3 -64 32 -16 51 -12 63 16 11 23 10 29
-11 45 -28 23 -35 23 -55 3z"/>
<path d="M6245 770 c-15 -16 -17 -26 -9 -48 13 -38 57 -42 80 -8 15 24 15 28
0 51 -20 30 -47 32 -71 5z"/>
</g>
</svg>
